<svg xmlns="http://www.w3.org/2000/svg" width="215" height="203" viewBox="0 0 215 203" version="1.1"><path d="M 104 64.309 C 95.294 67.354, 88.971 72.661, 84.709 80.500 C 81.783 85.882, 81.556 100.603, 84.314 106.145 C 87.224 111.992, 92.382 117.346, 98.106 120.461 C 102.675 122.948, 104.570 123.369, 111.465 123.430 C 118.313 123.490, 120.336 123.089, 125.161 120.720 C 148.595 109.212, 148.375 77.558, 124.781 66.136 C 119.327 63.496, 108.938 62.583, 104 64.309 M 101.667 67.667 C 101.300 68.033, 101 69.608, 101 71.167 C 101 73.738, 101.324 74, 104.500 74 L 108 74 108 92 L 108 110 111.250 109.985 C 117.386 109.956, 117.388 109.947, 116.676 91.092 L 116.031 74 118.957 74 C 122.458 74, 123.276 72.948, 122.422 69.546 C 121.792 67.036, 121.644 67, 112.058 67 C 106.710 67, 102.033 67.300, 101.667 67.667 M 35.363 69.715 C 31.991 70.139, 32.044 69.970, 29.325 89 C 29.050 90.925, 28.036 96.662, 27.073 101.750 L 25.321 111 28.532 111 C 31.634 111, 31.765 110.830, 32.413 105.945 L 33.084 100.889 37.265 101.195 C 41.317 101.491, 41.473 101.632, 42.282 105.750 C 43.039 109.597, 43.396 110, 46.059 110 C 47.676 110, 49 109.755, 49 109.456 C 49 108.806, 46.578 98.413, 44 88 C 42.978 83.875, 41.629 77.912, 41 74.750 C 40.372 71.588, 39.553 69.072, 39.179 69.160 C 38.806 69.248, 37.089 69.498, 35.363 69.715 M 53.184 72.750 C 53.435 74.932, 54.016 75.500, 56 75.500 C 57.984 75.500, 58.565 74.932, 58.816 72.750 C 59.102 70.268, 58.828 70, 56 70 C 53.172 70, 52.898 70.268, 53.184 72.750 M 178.809 79.541 C 177.102 80.468, 175.893 80.636, 175.500 80.001 C 175.160 79.450, 173.774 79, 172.419 79 L 169.957 79 170.228 98.250 L 170.500 117.500 173.250 117.816 C 175.987 118.131, 176 118.104, 176 111.959 C 176 106.462, 176.191 105.868, 177.750 106.534 C 182.182 108.430, 184.810 108.221, 186.346 105.850 C 188.144 103.077, 188.362 101.199, 188.156 90.289 C 188.022 83.246, 187.689 81.788, 185.811 80.039 C 183.243 77.646, 182.409 77.587, 178.809 79.541 M 150.025 80.975 C 147.273 83.727, 146.680 86.904, 147.209 96.053 C 147.799 106.242, 149.186 108, 156.632 108 C 164.451 108, 165.488 105.896, 165.151 90.705 C 165.023 84.937, 164.629 83.538, 162.545 81.455 C 159.390 78.299, 152.948 78.052, 150.025 80.975 M 35.602 84.089 C 35.222 86.465, 34.684 90.341, 34.406 92.704 C 33.904 96.969, 33.923 97, 37.075 97 C 40.128 97, 40.224 96.875, 39.580 93.750 C 39.212 91.963, 38.656 88.700, 38.346 86.500 C 37.454 80.176, 36.379 79.231, 35.602 84.089 M 73.182 82.500 C 69.591 85.522, 69 85.593, 69 83 C 69 81.546, 68.333 81, 66.559 81 C 65.216 81, 63.868 81.405, 63.562 81.900 C 63.256 82.395, 63.299 88.920, 63.658 96.400 L 64.310 110 67.305 110 L 70.301 110 69.646 100.005 C 69.045 90.844, 69.158 89.842, 70.995 88.005 C 72.098 86.902, 73.900 86, 75 86 C 76.556 86, 77 85.333, 77 83 C 77 81.350, 76.810 80, 76.577 80 C 76.344 80, 74.816 81.125, 73.182 82.500 M 53.223 95.250 L 53.500 109.500 56.900 109.825 L 60.300 110.149 59.650 103.928 C 59.293 100.506, 59 93.948, 59 89.353 L 59 81 55.973 81 L 52.945 81 53.223 95.250 M 176.701 83.250 C 175.235 84.340, 175.115 85.716, 175.760 94 C 176.478 103.220, 176.572 103.500, 178.955 103.500 C 181.008 103.500, 181.553 102.844, 182.281 99.500 C 183.834 92.364, 181.932 82, 179.069 82 C 178.691 82, 177.626 82.563, 176.701 83.250 M 153.392 84.420 C 152.215 87.487, 153.423 103.025, 154.909 103.944 C 158.339 106.063, 159.077 104.099, 158.784 93.630 C 158.513 83.979, 158.393 83.485, 156.246 83.180 C 154.898 82.989, 153.750 83.487, 153.392 84.420" stroke="none" fill="#244388" fill-rule="evenodd"/><path d="M 23.011 59.211 C 15.401 62.132, 7.044 70.594, 4.163 78.295 C 1.147 86.356, 1.147 99.644, 4.163 107.705 C 7.117 115.600, 15.400 123.883, 23.295 126.837 C 29.039 128.987, 29.558 129, 107.500 129 C 185.442 129, 185.961 128.987, 191.705 126.837 C 199.600 123.883, 207.883 115.600, 210.837 107.705 C 213.853 99.644, 213.853 86.356, 210.837 78.295 C 207.883 70.400, 199.600 62.117, 191.705 59.163 C 185.955 57.011, 185.513 57, 107.212 57.052 C 29.635 57.103, 28.421 57.135, 23.011 59.211 M 104 64.309 C 95.294 67.354, 88.971 72.661, 84.709 80.500 C 81.783 85.882, 81.556 100.603, 84.314 106.145 C 87.224 111.992, 92.382 117.346, 98.106 120.461 C 102.675 122.948, 104.570 123.369, 111.465 123.430 C 118.313 123.490, 120.336 123.089, 125.161 120.720 C 148.595 109.212, 148.375 77.558, 124.781 66.136 C 119.327 63.496, 108.938 62.583, 104 64.309 M 101.667 67.667 C 101.300 68.033, 101 69.608, 101 71.167 C 101 73.738, 101.324 74, 104.500 74 L 108 74 108 92 L 108 110 111.250 109.985 C 117.386 109.956, 117.388 109.947, 116.676 91.092 L 116.031 74 118.957 74 C 122.458 74, 123.276 72.948, 122.422 69.546 C 121.792 67.036, 121.644 67, 112.058 67 C 106.710 67, 102.033 67.300, 101.667 67.667 M 35.363 69.715 C 31.991 70.139, 32.044 69.970, 29.325 89 C 29.050 90.925, 28.036 96.662, 27.073 101.750 L 25.321 111 28.532 111 C 31.634 111, 31.765 110.830, 32.413 105.945 L 33.084 100.889 37.265 101.195 C 41.317 101.491, 41.473 101.632, 42.282 105.750 C 43.039 109.597, 43.396 110, 46.059 110 C 47.676 110, 49 109.755, 49 109.456 C 49 108.806, 46.578 98.413, 44 88 C 42.978 83.875, 41.629 77.912, 41 74.750 C 40.372 71.588, 39.553 69.072, 39.179 69.160 C 38.806 69.248, 37.089 69.498, 35.363 69.715 M 53.184 72.750 C 53.435 74.932, 54.016 75.500, 56 75.500 C 57.984 75.500, 58.565 74.932, 58.816 72.750 C 59.102 70.268, 58.828 70, 56 70 C 53.172 70, 52.898 70.268, 53.184 72.750 M 178.809 79.541 C 177.102 80.468, 175.893 80.636, 175.500 80.001 C 175.160 79.450, 173.774 79, 172.419 79 L 169.957 79 170.228 98.250 L 170.500 117.500 173.250 117.816 C 175.987 118.131, 176 118.104, 176 111.959 C 176 106.462, 176.191 105.868, 177.750 106.534 C 182.182 108.430, 184.810 108.221, 186.346 105.850 C 188.144 103.077, 188.362 101.199, 188.156 90.289 C 188.022 83.246, 187.689 81.788, 185.811 80.039 C 183.243 77.646, 182.409 77.587, 178.809 79.541 M 150.025 80.975 C 147.273 83.727, 146.680 86.904, 147.209 96.053 C 147.799 106.242, 149.186 108, 156.632 108 C 164.451 108, 165.488 105.896, 165.151 90.705 C 165.023 84.937, 164.629 83.538, 162.545 81.455 C 159.390 78.299, 152.948 78.052, 150.025 80.975 M 35.602 84.089 C 35.222 86.465, 34.684 90.341, 34.406 92.704 C 33.904 96.969, 33.923 97, 37.075 97 C 40.128 97, 40.224 96.875, 39.580 93.750 C 39.212 91.963, 38.656 88.700, 38.346 86.500 C 37.454 80.176, 36.379 79.231, 35.602 84.089 M 73.182 82.500 C 69.591 85.522, 69 85.593, 69 83 C 69 81.546, 68.333 81, 66.559 81 C 65.216 81, 63.868 81.405, 63.562 81.900 C 63.256 82.395, 63.299 88.920, 63.658 96.400 L 64.310 110 67.305 110 L 70.301 110 69.646 100.005 C 69.045 90.844, 69.158 89.842, 70.995 88.005 C 72.098 86.902, 73.900 86, 75 86 C 76.556 86, 77 85.333, 77 83 C 77 81.350, 76.810 80, 76.577 80 C 76.344 80, 74.816 81.125, 73.182 82.500 M 53.223 95.250 L 53.500 109.500 56.900 109.825 L 60.300 110.149 59.650 103.928 C 59.293 100.506, 59 93.948, 59 89.353 L 59 81 55.973 81 L 52.945 81 53.223 95.250 M 176.701 83.250 C 175.235 84.340, 175.115 85.716, 175.760 94 C 176.478 103.220, 176.572 103.500, 178.955 103.500 C 181.008 103.500, 181.553 102.844, 182.281 99.500 C 183.834 92.364, 181.932 82, 179.069 82 C 178.691 82, 177.626 82.563, 176.701 83.250 M 153.392 84.420 C 152.215 87.487, 153.423 103.025, 154.909 103.944 C 158.339 106.063, 159.077 104.099, 158.784 93.630 C 158.513 83.979, 158.393 83.485, 156.246 83.180 C 154.898 82.989, 153.750 83.487, 153.392 84.420" stroke="none" fill="#f8f8f9" fill-rule="evenodd"/></svg>