<svg xmlns="http://www.w3.org/2000/svg" width="215" height="295" viewBox="0 0 215 295" version="1.1"><path d="M 61 62.500 L 61 96 70.329 96 C 79.361 96, 79.656 95.928, 79.579 93.750 C 79.523 92.140, 80.069 91.500, 81.500 91.500 C 82.931 91.500, 83.477 92.140, 83.421 93.750 C 83.344 95.928, 83.639 96, 92.671 96 L 102 96 102 89.617 C 102 84.135, 101.725 83.161, 100.055 82.725 C 98.473 82.311, 98.054 82.801, 97.805 85.358 L 97.500 88.500 81.250 88.775 L 65 89.050 65 61.525 L 65 34 81.500 34 C 97.428 34, 98 34.071, 98 36.035 C 98 37.760, 98.305 37.907, 100 37 C 101.409 36.246, 102 34.906, 102 32.465 L 102 29 95.107 29 C 89.902 29, 88.073 29.367, 87.638 30.500 C 87.222 31.585, 85.522 32, 81.500 32 C 77.478 32, 75.778 31.585, 75.362 30.500 C 74.927 29.367, 73.098 29, 67.893 29 L 61 29 61 62.500 M 113 32.845 C 113 35.420, 113.661 37.288, 115 38.500 C 116.960 40.274, 117 40.247, 117 37.155 L 117 34 133.500 34 L 150 34 150 61.500 L 150 89 133.500 89 L 117 89 117 86.465 C 117 84.240, 116.756 84.060, 115 85 C 113.412 85.850, 113 87.094, 113 91.035 L 113 96 122.329 96 C 131.361 96, 131.656 95.928, 131.579 93.750 C 131.523 92.140, 132.069 91.500, 133.500 91.500 C 134.931 91.500, 135.477 92.140, 135.421 93.750 C 135.344 95.928, 135.639 96, 144.671 96 L 154 96 154 62.500 L 154 29 147.107 29 C 141.902 29, 140.073 29.367, 139.638 30.500 C 139.222 31.585, 137.522 32, 133.500 32 C 129.478 32, 127.778 31.585, 127.362 30.500 C 126.927 29.367, 125.098 29, 119.893 29 L 113 29 113 32.845 M 100.500 42.887 C 98.300 43.875, 95.871 45.444, 95.101 46.373 C 93.821 47.920, 93.933 47.976, 96.416 47.032 C 101.208 45.210, 104.718 45.814, 108.465 49.104 C 112.324 52.492, 112.797 54.094, 110.500 56 C 107.750 58.283, 108.945 59, 115.500 59 L 122 59 122 51.826 L 122 44.651 119.526 46.975 C 117.368 49.003, 116.972 49.091, 116.427 47.670 C 115.695 45.762, 110.579 42.508, 107 41.674 C 105.552 41.337, 102.817 41.847, 100.500 42.887 M 98 56 C 98 60.333, 98.267 61, 100 61 C 101.733 61, 102 60.333, 102 56 C 102 51.667, 101.733 51, 100 51 C 98.267 51, 98 51.667, 98 56 M 113 66 C 113 70.333, 113.267 71, 115 71 C 116.733 71, 117 70.333, 117 66 C 117 61.667, 116.733 61, 115 61 C 113.267 61, 113 61.667, 113 66 M 93 70.655 C 93 77.266, 93.013 77.298, 95.017 75.484 C 96.980 73.708, 97.108 73.727, 99.767 76.207 C 103.362 79.560, 106.282 81, 109.484 81 C 112.403 81, 117.027 78.877, 118.824 76.713 C 119.821 75.511, 119.247 75.366, 115.074 75.767 C 111.135 76.145, 109.541 75.810, 107.132 74.094 C 103.220 71.308, 102.311 68.419, 104.565 65.928 C 106.272 64.042, 106.164 64, 99.655 64 L 93 64 93 70.655 M 104 156.309 C 95.225 159.378, 88.761 164.789, 84.661 172.500 C 81.416 178.603, 81.577 192.692, 84.967 199.330 C 87.804 204.884, 93.030 209.946, 99.205 213.123 C 105.923 216.578, 117.676 216.396, 125.161 212.720 C 144.826 203.063, 148.623 178.550, 132.816 163.301 C 126.114 156.836, 112.169 153.453, 104 156.309 M 101.667 159.667 C 101.300 160.033, 101 161.608, 101 163.167 C 101 165.735, 101.326 166, 104.477 166 L 107.954 166 108.227 183.737 C 108.526 203.177, 108.497 203.096, 114.710 201.537 L 117.262 200.896 116.540 183.448 L 115.818 166 118.850 166 C 122.457 166, 123.282 164.971, 122.422 161.546 C 121.792 159.036, 121.644 159, 112.058 159 C 106.710 159, 102.033 159.300, 101.667 159.667 M 35.379 161.714 C 32.318 162.100, 32.233 162.257, 31.016 169.804 C 30.334 174.037, 29.627 178.400, 29.445 179.500 C 26.623 196.589, 25.714 201.622, 25.335 202.250 C 25.086 202.662, 26.426 203, 28.312 203 C 31.678 203, 31.755 202.906, 32.413 197.945 L 33.084 192.889 37.283 193.195 C 40.590 193.435, 41.546 193.925, 41.780 195.500 C 42.672 201.494, 43.002 202, 46.019 202 C 47.659 202, 49 201.691, 49 201.314 C 49 200.614, 47.439 193.794, 44.007 179.500 C 42.951 175.100, 41.572 169.137, 40.943 166.250 C 40.315 163.363, 39.508 161.072, 39.150 161.160 C 38.793 161.248, 37.095 161.497, 35.379 161.714 M 53 165.066 C 53 167.822, 53.279 168.101, 55.750 167.816 C 57.910 167.568, 58.568 166.910, 58.816 164.750 C 59.101 162.279, 58.822 162, 56.066 162 C 53.311 162, 53 162.311, 53 165.066 M 179.003 171.453 C 177.316 172.386, 176.117 172.512, 175.308 171.841 C 174.649 171.294, 173.073 170.994, 171.805 171.173 C 170.017 171.427, 169.514 172.117, 169.563 174.250 C 169.597 175.762, 169.709 184.454, 169.813 193.563 L 170 210.127 173.250 209.813 L 176.500 209.500 176.500 203.741 C 176.500 199.004, 176.766 198.095, 178 198.619 C 186.393 202.189, 189.492 197.248, 188.331 182.149 C 187.826 175.568, 187.256 173.385, 185.656 171.894 C 183.263 169.665, 182.344 169.604, 179.003 171.453 M 150.025 172.975 C 147.273 175.727, 146.680 178.904, 147.209 188.053 C 147.800 198.255, 149.182 200, 156.670 200 C 161.525 200, 162.197 199.724, 163.812 197.069 C 164.793 195.456, 165.519 192.869, 165.426 191.319 C 165.334 189.768, 165.200 185.667, 165.129 182.205 C 165.021 176.953, 164.593 175.502, 162.545 173.455 C 159.390 170.299, 152.948 170.052, 150.025 172.975 M 35.594 176.704 C 35.238 179.342, 34.694 183.188, 34.385 185.250 C 33.836 188.922, 33.891 189, 37.037 189 C 40.136 189, 40.226 188.885, 39.562 185.750 C 39.184 183.963, 38.519 180.353, 38.083 177.729 C 37.012 171.271, 36.363 171.004, 35.594 176.704 M 73.182 174.500 C 69.591 177.522, 69 177.593, 69 175 C 69 173.424, 68.333 173, 65.852 173 L 62.704 173 63.346 181.250 C 63.699 185.787, 63.991 192.313, 63.994 195.750 L 64 202 67.150 202 L 70.301 202 69.650 192.072 C 68.942 181.263, 69.518 179.661, 74.570 178.393 C 76.442 177.923, 77 177.120, 77 174.892 C 77 173.301, 76.810 172, 76.577 172 C 76.344 172, 74.816 173.125, 73.182 174.500 M 53.223 187.250 L 53.500 201.500 56.900 201.825 L 60.300 202.149 59.650 195.928 C 59.293 192.506, 59 185.948, 59 181.353 L 59 173 55.973 173 L 52.945 173 53.223 187.250 M 177.212 174.848 C 176.269 175.446, 176.001 178.322, 176.212 185.583 C 176.496 195.372, 176.532 195.500, 178.959 195.500 C 180.963 195.500, 181.554 194.852, 182.151 192 C 183.030 187.800, 182.121 177.002, 180.740 175.250 C 179.595 173.797, 178.979 173.727, 177.212 174.848 M 153.392 176.420 C 152.215 179.487, 153.423 195.025, 154.909 195.944 C 158.339 198.063, 159.077 196.099, 158.784 185.630 C 158.513 175.979, 158.393 175.485, 156.246 175.180 C 154.898 174.989, 153.750 175.487, 153.392 176.420" stroke="none" fill="#1d5ca0" fill-rule="evenodd"/><path d="M 89 1.982 C 76.235 5.383, 67.569 10.409, 57.954 19.987 C 45.115 32.777, 40 44.747, 40 62 C 40 78.853, 45.654 91.936, 58.382 104.537 C 71.623 117.644, 83.906 122.865, 103.531 123.725 C 113.650 124.169, 116.908 123.917, 124.031 122.138 C 137.494 118.776, 146.140 113.881, 156.046 104.013 C 168.885 91.223, 174 79.253, 174 62 C 174 45.147, 168.346 32.064, 155.618 19.463 C 147.078 11.009, 140.281 6.801, 129 2.983 C 119.390 -0.269, 99.336 -0.771, 89 1.982 M 61 62.500 L 61 96 70.329 96 C 79.361 96, 79.656 95.928, 79.579 93.750 C 79.523 92.140, 80.069 91.500, 81.500 91.500 C 82.931 91.500, 83.477 92.140, 83.421 93.750 C 83.344 95.928, 83.639 96, 92.671 96 L 102 96 102 89.617 C 102 84.135, 101.725 83.161, 100.055 82.725 C 98.473 82.311, 98.054 82.801, 97.805 85.358 L 97.500 88.500 81.250 88.775 L 65 89.050 65 61.525 L 65 34 81.500 34 C 97.428 34, 98 34.071, 98 36.035 C 98 37.760, 98.305 37.907, 100 37 C 101.409 36.246, 102 34.906, 102 32.465 L 102 29 95.107 29 C 89.902 29, 88.073 29.367, 87.638 30.500 C 87.222 31.585, 85.522 32, 81.500 32 C 77.478 32, 75.778 31.585, 75.362 30.500 C 74.927 29.367, 73.098 29, 67.893 29 L 61 29 61 62.500 M 113 32.845 C 113 35.420, 113.661 37.288, 115 38.500 C 116.960 40.274, 117 40.247, 117 37.155 L 117 34 133.500 34 L 150 34 150 61.500 L 150 89 133.500 89 L 117 89 117 86.465 C 117 84.240, 116.756 84.060, 115 85 C 113.412 85.850, 113 87.094, 113 91.035 L 113 96 122.329 96 C 131.361 96, 131.656 95.928, 131.579 93.750 C 131.523 92.140, 132.069 91.500, 133.500 91.500 C 134.931 91.500, 135.477 92.140, 135.421 93.750 C 135.344 95.928, 135.639 96, 144.671 96 L 154 96 154 62.500 L 154 29 147.107 29 C 141.902 29, 140.073 29.367, 139.638 30.500 C 139.222 31.585, 137.522 32, 133.500 32 C 129.478 32, 127.778 31.585, 127.362 30.500 C 126.927 29.367, 125.098 29, 119.893 29 L 113 29 113 32.845 M 100.500 42.887 C 98.300 43.875, 95.871 45.444, 95.101 46.373 C 93.821 47.920, 93.933 47.976, 96.416 47.032 C 101.208 45.210, 104.718 45.814, 108.465 49.104 C 112.324 52.492, 112.797 54.094, 110.500 56 C 107.750 58.283, 108.945 59, 115.500 59 L 122 59 122 51.826 L 122 44.651 119.526 46.975 C 117.368 49.003, 116.972 49.091, 116.427 47.670 C 115.695 45.762, 110.579 42.508, 107 41.674 C 105.552 41.337, 102.817 41.847, 100.500 42.887 M 98 56 C 98 60.333, 98.267 61, 100 61 C 101.733 61, 102 60.333, 102 56 C 102 51.667, 101.733 51, 100 51 C 98.267 51, 98 51.667, 98 56 M 113 66 C 113 70.333, 113.267 71, 115 71 C 116.733 71, 117 70.333, 117 66 C 117 61.667, 116.733 61, 115 61 C 113.267 61, 113 61.667, 113 66 M 93 70.655 C 93 77.266, 93.013 77.298, 95.017 75.484 C 96.980 73.708, 97.108 73.727, 99.767 76.207 C 103.362 79.560, 106.282 81, 109.484 81 C 112.403 81, 117.027 78.877, 118.824 76.713 C 119.821 75.511, 119.247 75.366, 115.074 75.767 C 111.135 76.145, 109.541 75.810, 107.132 74.094 C 103.220 71.308, 102.311 68.419, 104.565 65.928 C 106.272 64.042, 106.164 64, 99.655 64 L 93 64 93 70.655 M 23.011 151.211 C 15.401 154.132, 7.044 162.594, 4.163 170.295 C 1.147 178.356, 1.147 191.644, 4.163 199.705 C 7.117 207.600, 15.400 215.883, 23.295 218.837 C 29.039 220.987, 29.558 221, 107.500 221 C 185.442 221, 185.961 220.987, 191.705 218.837 C 199.600 215.883, 207.883 207.600, 210.837 199.705 C 213.853 191.644, 213.853 178.356, 210.837 170.295 C 207.883 162.400, 199.600 154.117, 191.705 151.163 C 185.955 149.011, 185.513 149, 107.212 149.052 C 29.635 149.103, 28.421 149.135, 23.011 151.211 M 104 156.309 C 95.225 159.378, 88.761 164.789, 84.661 172.500 C 81.416 178.603, 81.577 192.692, 84.967 199.330 C 87.804 204.884, 93.030 209.946, 99.205 213.123 C 105.923 216.578, 117.676 216.396, 125.161 212.720 C 144.826 203.063, 148.623 178.550, 132.816 163.301 C 126.114 156.836, 112.169 153.453, 104 156.309 M 101.667 159.667 C 101.300 160.033, 101 161.608, 101 163.167 C 101 165.735, 101.326 166, 104.477 166 L 107.954 166 108.227 183.737 C 108.526 203.177, 108.497 203.096, 114.710 201.537 L 117.262 200.896 116.540 183.448 L 115.818 166 118.850 166 C 122.457 166, 123.282 164.971, 122.422 161.546 C 121.792 159.036, 121.644 159, 112.058 159 C 106.710 159, 102.033 159.300, 101.667 159.667 M 35.379 161.714 C 32.318 162.100, 32.233 162.257, 31.016 169.804 C 30.334 174.037, 29.627 178.400, 29.445 179.500 C 26.623 196.589, 25.714 201.622, 25.335 202.250 C 25.086 202.662, 26.426 203, 28.312 203 C 31.678 203, 31.755 202.906, 32.413 197.945 L 33.084 192.889 37.283 193.195 C 40.590 193.435, 41.546 193.925, 41.780 195.500 C 42.672 201.494, 43.002 202, 46.019 202 C 47.659 202, 49 201.691, 49 201.314 C 49 200.614, 47.439 193.794, 44.007 179.500 C 42.951 175.100, 41.572 169.137, 40.943 166.250 C 40.315 163.363, 39.508 161.072, 39.150 161.160 C 38.793 161.248, 37.095 161.497, 35.379 161.714 M 53 165.066 C 53 167.822, 53.279 168.101, 55.750 167.816 C 57.910 167.568, 58.568 166.910, 58.816 164.750 C 59.101 162.279, 58.822 162, 56.066 162 C 53.311 162, 53 162.311, 53 165.066 M 179.003 171.453 C 177.316 172.386, 176.117 172.512, 175.308 171.841 C 174.649 171.294, 173.073 170.994, 171.805 171.173 C 170.017 171.427, 169.514 172.117, 169.563 174.250 C 169.597 175.762, 169.709 184.454, 169.813 193.563 L 170 210.127 173.250 209.813 L 176.500 209.500 176.500 203.741 C 176.500 199.004, 176.766 198.095, 178 198.619 C 186.393 202.189, 189.492 197.248, 188.331 182.149 C 187.826 175.568, 187.256 173.385, 185.656 171.894 C 183.263 169.665, 182.344 169.604, 179.003 171.453 M 150.025 172.975 C 147.273 175.727, 146.680 178.904, 147.209 188.053 C 147.800 198.255, 149.182 200, 156.670 200 C 161.525 200, 162.197 199.724, 163.812 197.069 C 164.793 195.456, 165.519 192.869, 165.426 191.319 C 165.334 189.768, 165.200 185.667, 165.129 182.205 C 165.021 176.953, 164.593 175.502, 162.545 173.455 C 159.390 170.299, 152.948 170.052, 150.025 172.975 M 35.594 176.704 C 35.238 179.342, 34.694 183.188, 34.385 185.250 C 33.836 188.922, 33.891 189, 37.037 189 C 40.136 189, 40.226 188.885, 39.562 185.750 C 39.184 183.963, 38.519 180.353, 38.083 177.729 C 37.012 171.271, 36.363 171.004, 35.594 176.704 M 73.182 174.500 C 69.591 177.522, 69 177.593, 69 175 C 69 173.424, 68.333 173, 65.852 173 L 62.704 173 63.346 181.250 C 63.699 185.787, 63.991 192.313, 63.994 195.750 L 64 202 67.150 202 L 70.301 202 69.650 192.072 C 68.942 181.263, 69.518 179.661, 74.570 178.393 C 76.442 177.923, 77 177.120, 77 174.892 C 77 173.301, 76.810 172, 76.577 172 C 76.344 172, 74.816 173.125, 73.182 174.500 M 53.223 187.250 L 53.500 201.500 56.900 201.825 L 60.300 202.149 59.650 195.928 C 59.293 192.506, 59 185.948, 59 181.353 L 59 173 55.973 173 L 52.945 173 53.223 187.250 M 177.212 174.848 C 176.269 175.446, 176.001 178.322, 176.212 185.583 C 176.496 195.372, 176.532 195.500, 178.959 195.500 C 180.963 195.500, 181.554 194.852, 182.151 192 C 183.030 187.800, 182.121 177.002, 180.740 175.250 C 179.595 173.797, 178.979 173.727, 177.212 174.848 M 153.392 176.420 C 152.215 179.487, 153.423 195.025, 154.909 195.944 C 158.339 198.063, 159.077 196.099, 158.784 185.630 C 158.513 175.979, 158.393 175.485, 156.246 175.180 C 154.898 174.989, 153.750 175.487, 153.392 176.420" stroke="none" fill="#f7f9fa" fill-rule="evenodd"/></svg>