<svg xmlns="http://www.w3.org/2000/svg" width="396" height="893" viewBox="0 0 396 893" version="1.1"><path d="M 186.500 229.417 C 176.878 231.643, 169.410 234.838, 161.575 240.078 C 149.607 248.083, 141.216 258.996, 136.900 272.172 C 133.577 282.317, 133.516 297.370, 136.756 307.675 C 142.587 326.220, 158.898 341.890, 179.479 348.719 C 186.575 351.074, 189.057 351.381, 201 351.381 C 212.943 351.381, 215.425 351.074, 222.521 348.719 C 243.106 341.889, 258.905 326.747, 265.060 307.950 C 268.425 297.677, 268.502 282.686, 265.244 272.325 C 259.397 253.731, 242.894 237.909, 222.521 231.366 C 212.576 228.173, 195.800 227.265, 186.500 229.417 M 155 290.500 L 155 324 163.930 324 C 172.430 324, 172.876 323.892, 173.180 321.750 C 173.390 320.273, 174.187 319.500, 175.500 319.500 C 176.931 319.500, 177.477 320.140, 177.421 321.750 C 177.344 323.928, 177.639 324, 186.671 324 L 196 324 196 318.035 C 196 313.094, 195.657 311.887, 194 311 C 192.175 310.023, 192 310.240, 192 313.465 L 192 317 175.484 317 L 158.968 317 159.234 289.250 L 159.500 261.500 175.500 261.500 C 191.327 261.500, 191.503 261.524, 191.819 263.748 C 192.087 265.634, 192.450 265.830, 194.069 264.963 C 195.407 264.247, 196 262.865, 196 260.465 L 196 257 189.107 257 C 183.902 257, 182.073 257.367, 181.638 258.500 C 181.215 259.604, 179.470 260, 175.031 260 C 170.337 260, 169 259.668, 169 258.500 C 169 257.310, 167.556 257, 162 257 L 155 257 155 290.500 M 207 260.845 C 207 263.373, 207.661 265.288, 208.930 266.436 C 210.797 268.126, 210.870 268.074, 211.180 264.841 L 211.500 261.500 227.500 261.500 L 243.500 261.500 243.766 289.250 L 244.032 317 227.516 317 C 211.387 317, 211 316.951, 211 314.893 C 211 313.383, 210.552 312.958, 209.418 313.393 C 208.548 313.727, 207.648 314, 207.418 314 C 207.188 314, 207 316.250, 207 319 L 207 324 216.329 324 C 225.361 324, 225.656 323.928, 225.579 321.750 C 225.523 320.140, 226.069 319.500, 227.500 319.500 C 228.813 319.500, 229.610 320.273, 229.820 321.750 C 230.124 323.892, 230.570 324, 239.070 324 L 248 324 248 290.500 L 248 257 241 257 C 235.444 257, 234 257.310, 234 258.500 C 234 259.668, 232.663 260, 227.969 260 C 223.530 260, 221.785 259.604, 221.362 258.500 C 220.927 257.367, 219.098 257, 213.893 257 L 207 257 207 260.845 M 192.250 271.989 C 190.463 273.079, 189 274.181, 189 274.438 C 189 274.695, 191.188 274.647, 193.861 274.330 C 198.431 273.789, 198.972 273.980, 202.896 277.525 L 207.070 281.296 204.861 283.648 L 202.651 286 209.326 286 L 216 286 216 279.326 L 216 272.651 213.608 274.899 C 211.291 277.075, 211.173 277.087, 209.858 275.273 C 205.920 269.840, 198.151 268.391, 192.250 271.989 M 192 284.500 C 192 288.333, 192.296 289, 194 289 C 195.704 289, 196 288.333, 196 284.500 C 196 280.667, 195.704 280, 194 280 C 192.296 280, 192 280.667, 192 284.500 M 207 294.500 C 207 298.333, 207.296 299, 209 299 C 210.704 299, 211 298.333, 211 294.500 C 211 290.667, 210.704 290, 209 290 C 207.296 290, 207 290.667, 207 294.500 M 187 298.655 C 187 305.214, 187.028 305.284, 188.971 303.526 C 190.877 301.801, 191.057 301.843, 194.397 304.775 C 196.297 306.444, 199.233 308.112, 200.922 308.483 C 204.548 309.279, 210.096 307.656, 212.383 305.130 C 213.930 303.420, 213.747 303.356, 208.525 303.789 C 203.294 304.223, 202.877 304.077, 199.384 300.584 L 195.723 296.923 198.036 294.462 L 200.349 292 193.674 292 L 187 292 187 298.655 M 119.863 378.555 C 104.387 383.360, 95.252 397.582, 96.193 415.409 C 96.939 429.552, 103.823 440.212, 115.852 445.852 L 121.500 448.500 201.500 448.500 L 281.500 448.500 287.148 445.852 C 290.254 444.396, 294.688 441.312, 297 439 C 299.312 436.688, 302.396 432.254, 303.852 429.148 C 306.189 424.163, 306.500 422.268, 306.500 413 C 306.500 403.732, 306.189 401.837, 303.852 396.852 C 300.480 389.660, 294.340 383.520, 287.148 380.148 L 281.500 377.500 203 377.308 C 137.102 377.146, 123.756 377.346, 119.863 378.555 M 198 384.309 C 184.884 388.896, 177.133 398.478, 176.217 411.237 C 175.585 420.042, 177.197 425.473, 182.413 432.116 C 188.504 439.871, 195.904 443.441, 205.958 443.475 C 212.213 443.496, 214.466 443.026, 219.161 440.720 C 231.973 434.428, 239.393 419.618, 235.930 407.248 C 231.979 393.138, 221.715 384.454, 207.882 383.517 C 204.243 383.271, 199.995 383.611, 198 384.309 M 195.699 387.634 C 195.315 388.019, 195 389.608, 195 391.167 C 195 393.738, 195.324 394, 198.500 394 L 202 394 202 412.057 L 202 430.115 206.250 429.807 L 210.500 429.500 210.307 411.809 L 210.113 394.118 213.307 393.809 C 216.119 393.537, 216.500 393.143, 216.500 390.500 L 216.500 387.500 206.449 387.217 C 200.922 387.062, 196.084 387.249, 195.699 387.634 M 125.926 392.250 C 125.885 393.488, 125.652 395.625, 125.407 397 C 125.163 398.375, 123.799 406.250, 122.375 414.500 C 120.951 422.750, 119.583 429.837, 119.334 430.250 C 119.086 430.663, 120.426 431, 122.312 431 C 125.678 431, 125.755 430.906, 126.413 425.945 L 127.084 420.889 131.265 421.195 C 135.317 421.491, 135.473 421.632, 136.282 425.750 C 137.039 429.597, 137.396 430, 140.059 430 C 141.676 430, 143 429.820, 143 429.601 C 143 429.381, 141.189 421.394, 138.976 411.851 C 136.763 402.308, 134.730 393.488, 134.457 392.250 C 134.045 390.376, 133.296 390, 129.981 390 C 126.541 390, 125.990 390.306, 125.926 392.250 M 147.184 392.750 C 147.435 394.932, 148.016 395.500, 150 395.500 C 151.984 395.500, 152.565 394.932, 152.816 392.750 C 153.102 390.268, 152.828 390, 150 390 C 147.172 390, 146.898 390.268, 147.184 392.750 M 272.809 399.541 C 271.102 400.468, 269.893 400.636, 269.500 400.001 C 269.160 399.450, 267.774 399, 266.419 399 L 263.957 399 264.228 418.250 L 264.500 437.500 267.250 437.816 C 269.987 438.131, 270 438.104, 270 431.959 C 270 426.462, 270.191 425.868, 271.750 426.534 C 276.182 428.430, 278.810 428.221, 280.346 425.850 C 282.144 423.077, 282.362 421.199, 282.156 410.289 C 282.022 403.246, 281.689 401.788, 279.811 400.039 C 277.243 397.646, 276.409 397.587, 272.809 399.541 M 244.201 401.028 C 241.316 403.715, 240.709 406.558, 241.151 415.312 C 241.392 420.084, 242.131 423.551, 243.283 425.309 C 244.840 427.686, 245.683 428, 250.500 428 C 258.031 428, 259.357 425.928, 259.143 414.494 C 258.967 405.053, 258.005 401.608, 255.114 400.061 C 251.888 398.335, 246.587 398.804, 244.201 401.028 M 129.655 403.118 C 129.316 404.978, 128.758 408.863, 128.416 411.750 L 127.793 417 130.897 417 C 134.415 417, 134.454 416.831, 132.906 408.434 C 131.437 400.464, 130.437 398.830, 129.655 403.118 M 147.223 415.250 L 147.500 429.500 150.893 429.824 L 154.286 430.148 153.654 426.324 C 153.306 424.221, 153.017 417.663, 153.011 411.750 L 153 401 149.973 401 L 146.945 401 147.223 415.250 M 157.562 401.900 C 157.256 402.395, 157.299 408.920, 157.658 416.400 L 158.310 430 161.305 430 L 164.301 430 163.646 420.005 C 163.045 410.844, 163.158 409.842, 164.995 408.005 C 166.098 406.902, 167.900 406, 169 406 C 170.467 406, 171 405.333, 171 403.500 C 171 400.473, 168.989 400.250, 166.500 403 C 165.505 404.100, 164.310 405, 163.845 405 C 163.380 405, 163 404.100, 163 403 C 163 401.546, 162.333 401, 160.559 401 C 159.216 401, 157.868 401.405, 157.562 401.900 M 270.189 403.272 C 269.514 404.086, 269.344 408.073, 269.717 414.324 C 270.300 424.101, 270.301 424.104, 272.861 423.802 C 274.953 423.555, 275.580 422.769, 276.287 419.500 C 277.340 414.628, 276.568 405.389, 274.943 403.431 C 273.473 401.660, 271.580 401.597, 270.189 403.272 M 247.392 404.420 C 246.431 406.926, 247.396 422.797, 248.583 423.983 C 249.178 424.579, 250.431 424.772, 251.366 424.413 C 252.840 423.847, 253.029 422.406, 252.784 413.630 C 252.513 403.979, 252.393 403.485, 250.246 403.180 C 248.898 402.989, 247.750 403.487, 247.392 404.420" stroke="none" fill="#f8f9fa" fill-rule="evenodd"/><path d="M -0 446.502 L -0 893.005 198.250 892.752 L 396.500 892.500 396.751 446.250 L 397.002 0 198.501 0 L 0 0 -0 446.502 M 0.496 447 C 0.496 692.575, 0.610 793.037, 0.750 670.250 C 0.890 547.462, 0.890 346.537, 0.750 223.750 C 0.610 100.962, 0.496 201.425, 0.496 447 M 186.500 229.417 C 176.878 231.643, 169.410 234.838, 161.575 240.078 C 149.607 248.083, 141.216 258.996, 136.900 272.172 C 133.577 282.317, 133.516 297.370, 136.756 307.675 C 142.587 326.220, 158.898 341.890, 179.479 348.719 C 186.575 351.074, 189.057 351.381, 201 351.381 C 212.943 351.381, 215.425 351.074, 222.521 348.719 C 243.106 341.889, 258.905 326.747, 265.060 307.950 C 268.425 297.677, 268.502 282.686, 265.244 272.325 C 259.397 253.731, 242.894 237.909, 222.521 231.366 C 212.576 228.173, 195.800 227.265, 186.500 229.417 M 155 290.500 L 155 324 163.930 324 C 172.430 324, 172.876 323.892, 173.180 321.750 C 173.390 320.273, 174.187 319.500, 175.500 319.500 C 176.931 319.500, 177.477 320.140, 177.421 321.750 C 177.344 323.928, 177.639 324, 186.671 324 L 196 324 196 318.035 C 196 313.094, 195.657 311.887, 194 311 C 192.175 310.023, 192 310.240, 192 313.465 L 192 317 175.484 317 L 158.968 317 159.234 289.250 L 159.500 261.500 175.500 261.500 C 191.327 261.500, 191.503 261.524, 191.819 263.748 C 192.087 265.634, 192.450 265.830, 194.069 264.963 C 195.407 264.247, 196 262.865, 196 260.465 L 196 257 189.107 257 C 183.902 257, 182.073 257.367, 181.638 258.500 C 181.215 259.604, 179.470 260, 175.031 260 C 170.337 260, 169 259.668, 169 258.500 C 169 257.310, 167.556 257, 162 257 L 155 257 155 290.500 M 207 260.845 C 207 263.373, 207.661 265.288, 208.930 266.436 C 210.797 268.126, 210.870 268.074, 211.180 264.841 L 211.500 261.500 227.500 261.500 L 243.500 261.500 243.766 289.250 L 244.032 317 227.516 317 C 211.387 317, 211 316.951, 211 314.893 C 211 313.383, 210.552 312.958, 209.418 313.393 C 208.548 313.727, 207.648 314, 207.418 314 C 207.188 314, 207 316.250, 207 319 L 207 324 216.329 324 C 225.361 324, 225.656 323.928, 225.579 321.750 C 225.523 320.140, 226.069 319.500, 227.500 319.500 C 228.813 319.500, 229.610 320.273, 229.820 321.750 C 230.124 323.892, 230.570 324, 239.070 324 L 248 324 248 290.500 L 248 257 241 257 C 235.444 257, 234 257.310, 234 258.500 C 234 259.668, 232.663 260, 227.969 260 C 223.530 260, 221.785 259.604, 221.362 258.500 C 220.927 257.367, 219.098 257, 213.893 257 L 207 257 207 260.845 M 192.250 271.989 C 190.463 273.079, 189 274.181, 189 274.438 C 189 274.695, 191.188 274.647, 193.861 274.330 C 198.431 273.789, 198.972 273.980, 202.896 277.525 L 207.070 281.296 204.861 283.648 L 202.651 286 209.326 286 L 216 286 216 279.326 L 216 272.651 213.608 274.899 C 211.291 277.075, 211.173 277.087, 209.858 275.273 C 205.920 269.840, 198.151 268.391, 192.250 271.989 M 192 284.500 C 192 288.333, 192.296 289, 194 289 C 195.704 289, 196 288.333, 196 284.500 C 196 280.667, 195.704 280, 194 280 C 192.296 280, 192 280.667, 192 284.500 M 207 294.500 C 207 298.333, 207.296 299, 209 299 C 210.704 299, 211 298.333, 211 294.500 C 211 290.667, 210.704 290, 209 290 C 207.296 290, 207 290.667, 207 294.500 M 187 298.655 C 187 305.214, 187.028 305.284, 188.971 303.526 C 190.877 301.801, 191.057 301.843, 194.397 304.775 C 196.297 306.444, 199.233 308.112, 200.922 308.483 C 204.548 309.279, 210.096 307.656, 212.383 305.130 C 213.930 303.420, 213.747 303.356, 208.525 303.789 C 203.294 304.223, 202.877 304.077, 199.384 300.584 L 195.723 296.923 198.036 294.462 L 200.349 292 193.674 292 L 187 292 187 298.655 M 119.863 378.555 C 104.387 383.360, 95.252 397.582, 96.193 415.409 C 96.939 429.552, 103.823 440.212, 115.852 445.852 L 121.500 448.500 201.500 448.500 L 281.500 448.500 287.148 445.852 C 290.254 444.396, 294.688 441.312, 297 439 C 299.312 436.688, 302.396 432.254, 303.852 429.148 C 306.189 424.163, 306.500 422.268, 306.500 413 C 306.500 403.732, 306.189 401.837, 303.852 396.852 C 300.480 389.660, 294.340 383.520, 287.148 380.148 L 281.500 377.500 203 377.308 C 137.102 377.146, 123.756 377.346, 119.863 378.555 M 198 384.309 C 184.884 388.896, 177.133 398.478, 176.217 411.237 C 175.585 420.042, 177.197 425.473, 182.413 432.116 C 188.504 439.871, 195.904 443.441, 205.958 443.475 C 212.213 443.496, 214.466 443.026, 219.161 440.720 C 231.973 434.428, 239.393 419.618, 235.930 407.248 C 231.979 393.138, 221.715 384.454, 207.882 383.517 C 204.243 383.271, 199.995 383.611, 198 384.309 M 195.699 387.634 C 195.315 388.019, 195 389.608, 195 391.167 C 195 393.738, 195.324 394, 198.500 394 L 202 394 202 412.057 L 202 430.115 206.250 429.807 L 210.500 429.500 210.307 411.809 L 210.113 394.118 213.307 393.809 C 216.119 393.537, 216.500 393.143, 216.500 390.500 L 216.500 387.500 206.449 387.217 C 200.922 387.062, 196.084 387.249, 195.699 387.634 M 125.926 392.250 C 125.885 393.488, 125.652 395.625, 125.407 397 C 125.163 398.375, 123.799 406.250, 122.375 414.500 C 120.951 422.750, 119.583 429.837, 119.334 430.250 C 119.086 430.663, 120.426 431, 122.312 431 C 125.678 431, 125.755 430.906, 126.413 425.945 L 127.084 420.889 131.265 421.195 C 135.317 421.491, 135.473 421.632, 136.282 425.750 C 137.039 429.597, 137.396 430, 140.059 430 C 141.676 430, 143 429.820, 143 429.601 C 143 429.381, 141.189 421.394, 138.976 411.851 C 136.763 402.308, 134.730 393.488, 134.457 392.250 C 134.045 390.376, 133.296 390, 129.981 390 C 126.541 390, 125.990 390.306, 125.926 392.250 M 147.184 392.750 C 147.435 394.932, 148.016 395.500, 150 395.500 C 151.984 395.500, 152.565 394.932, 152.816 392.750 C 153.102 390.268, 152.828 390, 150 390 C 147.172 390, 146.898 390.268, 147.184 392.750 M 272.809 399.541 C 271.102 400.468, 269.893 400.636, 269.500 400.001 C 269.160 399.450, 267.774 399, 266.419 399 L 263.957 399 264.228 418.250 L 264.500 437.500 267.250 437.816 C 269.987 438.131, 270 438.104, 270 431.959 C 270 426.462, 270.191 425.868, 271.750 426.534 C 276.182 428.430, 278.810 428.221, 280.346 425.850 C 282.144 423.077, 282.362 421.199, 282.156 410.289 C 282.022 403.246, 281.689 401.788, 279.811 400.039 C 277.243 397.646, 276.409 397.587, 272.809 399.541 M 244.201 401.028 C 241.316 403.715, 240.709 406.558, 241.151 415.312 C 241.392 420.084, 242.131 423.551, 243.283 425.309 C 244.840 427.686, 245.683 428, 250.500 428 C 258.031 428, 259.357 425.928, 259.143 414.494 C 258.967 405.053, 258.005 401.608, 255.114 400.061 C 251.888 398.335, 246.587 398.804, 244.201 401.028 M 129.655 403.118 C 129.316 404.978, 128.758 408.863, 128.416 411.750 L 127.793 417 130.897 417 C 134.415 417, 134.454 416.831, 132.906 408.434 C 131.437 400.464, 130.437 398.830, 129.655 403.118 M 147.223 415.250 L 147.500 429.500 150.893 429.824 L 154.286 430.148 153.654 426.324 C 153.306 424.221, 153.017 417.663, 153.011 411.750 L 153 401 149.973 401 L 146.945 401 147.223 415.250 M 157.562 401.900 C 157.256 402.395, 157.299 408.920, 157.658 416.400 L 158.310 430 161.305 430 L 164.301 430 163.646 420.005 C 163.045 410.844, 163.158 409.842, 164.995 408.005 C 166.098 406.902, 167.900 406, 169 406 C 170.467 406, 171 405.333, 171 403.500 C 171 400.473, 168.989 400.250, 166.500 403 C 165.505 404.100, 164.310 405, 163.845 405 C 163.380 405, 163 404.100, 163 403 C 163 401.546, 162.333 401, 160.559 401 C 159.216 401, 157.868 401.405, 157.562 401.900 M 270.189 403.272 C 269.514 404.086, 269.344 408.073, 269.717 414.324 C 270.300 424.101, 270.301 424.104, 272.861 423.802 C 274.953 423.555, 275.580 422.769, 276.287 419.500 C 277.340 414.628, 276.568 405.389, 274.943 403.431 C 273.473 401.660, 271.580 401.597, 270.189 403.272 M 247.392 404.420 C 246.431 406.926, 247.396 422.797, 248.583 423.983 C 249.178 424.579, 250.431 424.772, 251.366 424.413 C 252.840 423.847, 253.029 422.406, 252.784 413.630 C 252.513 403.979, 252.393 403.485, 250.246 403.180 C 248.898 402.989, 247.750 403.487, 247.392 404.420" stroke="none" fill="#2c3380" fill-rule="evenodd"/></svg>