<svg width="395" height="853" viewBox="0 0 395 853" fill="none" xmlns="http://www.w3.org/2000/svg">
<g clip-path="url(#clip0_116_33)">
<rect x="1.53369" width="393" height="852" rx="40" transform="rotate(0.103137 1.53369 0)" fill="url(#paint0_linear_116_33)"/>
<rect x="5.30664" y="34.3461" width="393" height="268" transform="rotate(0.59217 5.30664 34.3461)" fill="url(#paint1_linear_116_33)"/>
<rect x="-52.4663" y="-0.0971375" width="501" height="334" transform="rotate(0.103138 -52.4663 -0.0971375)" fill="url(#paint2_linear_116_33)" fill-opacity="0.9"/>
<g filter="url(#filter0_d_116_33)">
<rect x="54.4479" y="539.263" width="283" height="47.1803" rx="8" transform="rotate(-0.0389808 54.4479 539.263)" stroke="#0E55A7" stroke-width="2"/>
<rect x="73.4399" y="527.43" width="129" height="21.6393" transform="rotate(-0.0389808 73.4399 527.43)" fill="white"/>
<path d="M86.8954 537.388L85.6625 537.389C85.5893 537.035 85.4615 536.723 85.279 536.455C85.0999 536.186 84.881 535.961 84.6223 535.779C84.367 535.594 84.0835 535.455 83.7719 535.362C83.4603 535.269 83.1354 535.223 82.7974 535.223C82.1809 535.224 81.6225 535.38 81.1223 535.692C80.6253 536.004 80.2296 536.463 79.935 537.07C79.6437 537.677 79.4984 538.421 79.499 539.302C79.4996 540.184 79.646 540.928 79.938 541.534C80.2334 542.141 80.6298 542.6 81.1272 542.911C81.6279 543.222 82.1864 543.377 82.8029 543.377C83.141 543.377 83.4658 543.33 83.7773 543.237C84.0888 543.144 84.372 543.006 84.6271 542.824C84.8855 542.638 85.1041 542.411 85.2829 542.142C85.465 541.87 85.5924 541.559 85.6651 541.207L86.898 541.207C86.8056 541.727 86.6369 542.193 86.3919 542.604C86.1469 543.015 85.8422 543.365 85.4778 543.653C85.1134 543.939 84.7043 544.156 84.2503 544.306C83.7996 544.455 83.3174 544.53 82.8037 544.53C81.9353 544.531 81.1629 544.319 80.4865 543.896C79.8101 543.472 79.2777 542.869 78.8894 542.087C78.5011 541.305 78.3066 540.377 78.3058 539.303C78.3051 538.229 78.4984 537.301 78.8856 536.519C79.2729 535.736 79.8044 535.133 80.4803 534.708C81.1561 534.283 81.9282 534.071 82.7966 534.07C83.3103 534.07 83.7926 534.144 84.2435 534.293C84.6977 534.442 85.1071 534.66 85.4719 534.948C85.8367 535.233 86.1418 535.581 86.3874 535.992C86.6329 536.399 86.8023 536.865 86.8954 537.388ZM91.8359 544.544C91.1465 544.545 90.5415 544.381 90.0209 544.053C89.5036 543.725 89.099 543.267 88.8069 542.677C88.5181 542.087 88.3735 541.398 88.373 540.609C88.3724 539.813 88.5161 539.119 88.8041 538.526C89.0953 537.932 89.4994 537.471 90.0162 537.143C90.5363 536.814 91.1411 536.65 91.8305 536.649C92.5199 536.649 93.1232 536.812 93.6405 537.14C94.1611 537.468 94.5657 537.928 94.8545 538.521C95.1466 539.114 95.2929 539.809 95.2934 540.604C95.2939 541.393 95.1486 542.083 94.8573 542.673C94.5694 543.263 94.1653 543.722 93.6452 544.051C93.1284 544.379 92.5253 544.544 91.8359 544.544ZM91.8351 543.49C92.3588 543.49 92.7896 543.355 93.1275 543.087C93.4654 542.818 93.7154 542.465 93.8775 542.027C94.0396 541.589 94.1205 541.115 94.1201 540.605C94.1198 540.095 94.0382 539.619 93.8755 539.178C93.7128 538.738 93.4623 538.381 93.1241 538.11C92.7858 537.838 92.3549 537.703 91.8312 537.703C91.3075 537.704 90.8768 537.84 90.5389 538.112C90.201 538.384 89.951 538.74 89.7889 539.181C89.6268 539.622 89.5459 540.098 89.5462 540.608C89.5466 541.119 89.6281 541.592 89.7908 542.03C89.9535 542.467 90.204 542.82 90.5423 543.088C90.8805 543.356 91.3115 543.49 91.8351 543.49ZM98.2572 539.787L98.2603 544.381L97.087 544.381L97.0818 536.745L98.2153 536.744L98.2161 537.937L98.3156 537.937C98.4943 537.549 98.7658 537.238 99.1303 537.002C99.4947 536.763 99.9653 536.644 100.542 536.643C101.059 536.643 101.511 536.749 101.899 536.961C102.287 537.169 102.589 537.487 102.805 537.914C103.021 538.339 103.129 538.875 103.129 539.525L103.132 544.377L101.959 544.378L101.956 539.605C101.955 539.005 101.799 538.538 101.488 538.204C101.176 537.866 100.748 537.697 100.205 537.697C99.8301 537.698 99.4954 537.779 99.2005 537.942C98.909 538.104 98.6788 538.341 98.5099 538.653C98.3411 538.965 98.2569 539.343 98.2572 539.787ZM108.672 536.737L108.672 537.731L104.556 537.734L104.555 536.74L108.672 536.737ZM105.793 544.375L105.788 535.685C105.787 535.248 105.89 534.883 106.095 534.591C106.3 534.299 106.567 534.08 106.895 533.934C107.223 533.788 107.569 533.715 107.934 533.715C108.222 533.715 108.458 533.738 108.64 533.784C108.822 533.83 108.958 533.873 109.048 533.913L108.71 534.927C108.651 534.908 108.568 534.883 108.462 534.853C108.359 534.823 108.223 534.808 108.054 534.809C107.666 534.809 107.386 534.907 107.214 535.102C107.045 535.298 106.961 535.585 106.961 535.963L106.967 544.375L105.793 544.375ZM110.321 544.372L110.316 536.736L111.489 536.735L111.495 544.372L110.321 544.372ZM110.912 535.463C110.683 535.463 110.486 535.385 110.32 535.23C110.158 535.074 110.076 534.887 110.076 534.668C110.076 534.449 110.157 534.262 110.319 534.106C110.485 533.95 110.682 533.872 110.911 533.872C111.14 533.872 111.335 533.95 111.498 534.105C111.663 534.261 111.746 534.448 111.747 534.667C111.747 534.886 111.664 535.073 111.498 535.229C111.336 535.385 111.141 535.463 110.912 535.463ZM113.644 544.37L113.638 536.734L114.772 536.733L114.773 537.886L114.852 537.886C114.991 537.508 115.243 537.202 115.607 536.966C115.972 536.731 116.383 536.613 116.84 536.612C116.926 536.612 117.034 536.614 117.163 536.617C117.292 536.62 117.39 536.625 117.457 536.632L117.457 537.825C117.418 537.815 117.326 537.8 117.184 537.78C117.045 537.757 116.897 537.746 116.741 537.746C116.37 537.746 116.039 537.824 115.747 537.98C115.459 538.133 115.23 538.345 115.062 538.617C114.896 538.886 114.813 539.192 114.814 539.537L114.817 544.369L113.644 544.37ZM118.853 544.367L118.847 536.73L119.981 536.729L119.982 537.923L120.081 537.923C120.24 537.515 120.497 537.198 120.851 536.972C121.206 536.744 121.631 536.629 122.129 536.629C122.632 536.628 123.052 536.742 123.387 536.971C123.725 537.196 123.989 537.512 124.178 537.92L124.257 537.92C124.453 537.525 124.746 537.212 125.137 536.979C125.528 536.744 125.996 536.626 126.543 536.626C127.226 536.625 127.785 536.838 128.219 537.266C128.654 537.69 128.871 538.351 128.872 539.249L128.875 544.36L127.702 544.361L127.699 539.25C127.698 538.686 127.544 538.284 127.235 538.042C126.927 537.8 126.564 537.68 126.146 537.68C125.609 537.68 125.194 537.843 124.899 538.168C124.604 538.49 124.457 538.897 124.457 539.391L124.461 544.363L123.267 544.364L123.264 539.133C123.264 538.699 123.122 538.35 122.841 538.085C122.559 537.816 122.196 537.682 121.751 537.683C121.447 537.683 121.162 537.764 120.897 537.927C120.635 538.09 120.423 538.315 120.261 538.604C120.102 538.889 120.022 539.219 120.023 539.593L120.026 544.366L118.853 544.367ZM135.117 544.356L135.11 534.174L138.551 534.171C139.349 534.171 140.002 534.315 140.51 534.603C141.02 534.887 141.398 535.273 141.644 535.76C141.89 536.247 142.013 536.791 142.013 537.391C142.013 537.991 141.891 538.536 141.646 539.027C141.405 539.517 141.03 539.909 140.523 540.201C140.017 540.489 139.367 540.634 138.575 540.634L136.109 540.636L136.108 539.542L138.534 539.541C139.081 539.54 139.52 539.446 139.852 539.256C140.183 539.067 140.423 538.812 140.572 538.49C140.724 538.165 140.8 537.799 140.8 537.391C140.8 536.984 140.723 536.619 140.57 536.298C140.421 535.976 140.179 535.725 139.844 535.543C139.509 535.357 139.065 535.265 138.512 535.265L136.344 535.267L136.35 544.355L135.117 544.356ZM146.092 544.527C145.608 544.527 145.169 544.437 144.774 544.254C144.38 544.069 144.066 543.803 143.834 543.455C143.602 543.104 143.486 542.679 143.485 542.182C143.485 541.745 143.571 541.39 143.743 541.118C143.915 540.843 144.146 540.627 144.434 540.471C144.722 540.315 145.04 540.199 145.388 540.123C145.739 540.043 146.092 539.98 146.447 539.933C146.911 539.873 147.287 539.828 147.575 539.798C147.867 539.765 148.079 539.71 148.212 539.634C148.347 539.557 148.415 539.425 148.415 539.236L148.415 539.196C148.415 538.705 148.28 538.324 148.012 538.053C147.746 537.781 147.344 537.645 146.803 537.646C146.243 537.646 145.804 537.769 145.486 538.015C145.168 538.26 144.945 538.522 144.815 538.801L143.702 538.404C143.9 537.94 144.165 537.578 144.496 537.319C144.831 537.057 145.195 536.875 145.59 536.772C145.987 536.665 146.378 536.612 146.763 536.612C147.008 536.612 147.29 536.641 147.608 536.701C147.93 536.757 148.24 536.874 148.538 537.053C148.84 537.232 149.09 537.502 149.289 537.863C149.488 538.224 149.588 538.708 149.589 539.314L149.592 544.346L148.419 544.346L148.418 543.312L148.358 543.312C148.279 543.478 148.146 543.656 147.961 543.845C147.775 544.034 147.529 544.195 147.22 544.327C146.912 544.46 146.536 544.527 146.092 544.527ZM146.27 543.473C146.734 543.473 147.125 543.381 147.443 543.199C147.765 543.016 148.007 542.781 148.169 542.492C148.334 542.204 148.417 541.9 148.417 541.582L148.416 540.508C148.366 540.568 148.257 540.623 148.088 540.673C147.922 540.719 147.73 540.761 147.511 540.797C147.296 540.831 147.086 540.861 146.88 540.887C146.678 540.911 146.514 540.931 146.388 540.947C146.083 540.987 145.798 541.052 145.533 541.142C145.271 541.228 145.059 541.359 144.897 541.535C144.738 541.707 144.658 541.943 144.659 542.241C144.659 542.649 144.81 542.957 145.112 543.165C145.417 543.371 145.803 543.473 146.27 543.473ZM157.139 538.414L156.085 538.713C156.018 538.538 155.92 538.367 155.791 538.202C155.665 538.033 155.493 537.894 155.274 537.784C155.055 537.675 154.775 537.621 154.433 537.621C153.966 537.621 153.577 537.729 153.265 537.945C152.957 538.157 152.803 538.427 152.804 538.755C152.804 539.047 152.91 539.277 153.122 539.446C153.334 539.615 153.666 539.756 154.117 539.868L155.25 540.146C155.933 540.311 156.442 540.564 156.777 540.905C157.112 541.243 157.28 541.679 157.28 542.213C157.281 542.65 157.155 543.041 156.903 543.386C156.655 543.731 156.307 544.003 155.86 544.202C155.412 544.401 154.892 544.501 154.299 544.502C153.52 544.502 152.875 544.333 152.365 543.996C151.854 543.658 151.53 543.164 151.394 542.515L152.508 542.236C152.614 542.647 152.815 542.955 153.11 543.16C153.408 543.365 153.798 543.468 154.278 543.467C154.825 543.467 155.259 543.351 155.581 543.119C155.905 542.883 156.068 542.601 156.067 542.273C156.067 542.008 155.974 541.786 155.788 541.607C155.603 541.425 155.318 541.289 154.933 541.2L153.66 540.903C152.961 540.737 152.447 540.481 152.118 540.133C151.793 539.782 151.631 539.343 151.63 538.816C151.63 538.385 151.751 538.004 151.992 537.672C152.237 537.341 152.57 537.08 152.991 536.891C153.415 536.702 153.896 536.607 154.433 536.607C155.188 536.606 155.782 536.771 156.213 537.103C156.647 537.434 156.956 537.871 157.139 538.414ZM164.453 538.409L163.399 538.708C163.333 538.533 163.235 538.362 163.106 538.197C162.979 538.028 162.807 537.889 162.588 537.779C162.369 537.67 162.089 537.616 161.748 537.616C161.281 537.616 160.891 537.724 160.58 537.94C160.272 538.152 160.118 538.422 160.118 538.75C160.118 539.042 160.224 539.272 160.437 539.441C160.649 539.61 160.98 539.751 161.431 539.863L162.565 540.141C163.248 540.306 163.757 540.559 164.092 540.9C164.427 541.238 164.594 541.674 164.595 542.208C164.595 542.645 164.469 543.036 164.218 543.381C163.969 543.726 163.622 543.998 163.174 544.197C162.727 544.396 162.207 544.496 161.613 544.497C160.834 544.497 160.19 544.329 159.679 543.991C159.168 543.653 158.845 543.159 158.709 542.51L159.822 542.231C159.928 542.642 160.129 542.95 160.424 543.155C160.723 543.36 161.112 543.463 161.593 543.463C162.14 543.462 162.574 543.346 162.895 543.114C163.22 542.878 163.382 542.596 163.382 542.268C163.382 542.003 163.289 541.781 163.103 541.602C162.917 541.42 162.632 541.284 162.247 541.195L160.975 540.898C160.275 540.732 159.761 540.476 159.433 540.128C159.108 539.777 158.945 539.338 158.945 538.811C158.944 538.38 159.065 537.999 159.307 537.667C159.552 537.336 159.885 537.075 160.306 536.886C160.73 536.697 161.21 536.602 161.747 536.602C162.503 536.601 163.096 536.766 163.527 537.098C163.962 537.429 164.27 537.866 164.453 538.409ZM168.092 544.333L165.761 536.698L166.994 536.697L168.648 542.543L168.728 542.543L170.354 536.695L171.607 536.694L173.222 542.52L173.301 542.52L174.948 536.692L176.181 536.691L173.86 544.329L172.706 544.33L171.032 538.465L170.912 538.465L169.246 544.332L168.092 544.333ZM180.58 544.484C179.891 544.484 179.286 544.32 178.765 543.993C178.248 543.665 177.843 543.206 177.551 542.616C177.262 542.027 177.118 541.337 177.117 540.549C177.117 539.753 177.26 539.059 177.548 538.465C177.839 537.872 178.243 537.411 178.76 537.082C179.28 536.754 179.885 536.589 180.575 536.589C181.264 536.588 181.867 536.752 182.385 537.08C182.905 537.408 183.31 537.868 183.599 538.461C183.891 539.054 184.037 539.748 184.038 540.544C184.038 541.333 183.893 542.022 183.601 542.612C183.313 543.202 182.909 543.662 182.389 543.99C181.872 544.319 181.269 544.483 180.58 544.484ZM180.579 543.43C181.103 543.429 181.534 543.295 181.872 543.026C182.209 542.757 182.459 542.404 182.622 541.967C182.784 541.529 182.865 541.055 182.864 540.545C182.864 540.034 182.782 539.559 182.62 539.118C182.457 538.677 182.206 538.321 181.868 538.05C181.53 537.778 181.099 537.642 180.575 537.643C180.052 537.643 179.621 537.779 179.283 538.051C178.945 538.323 178.695 538.68 178.533 539.121C178.371 539.562 178.29 540.037 178.29 540.548C178.291 541.058 178.372 541.532 178.535 541.969C178.698 542.407 178.948 542.76 179.286 543.028C179.625 543.296 180.056 543.43 180.579 543.43ZM185.831 544.321L185.826 536.685L186.959 536.684L186.96 537.837L187.04 537.837C187.179 537.459 187.43 537.153 187.795 536.917C188.159 536.681 188.57 536.563 189.028 536.563C189.114 536.563 189.221 536.565 189.351 536.568C189.48 536.571 189.578 536.576 189.644 536.583L189.645 537.776C189.605 537.766 189.514 537.751 189.371 537.731C189.232 537.708 189.085 537.697 188.929 537.697C188.558 537.697 188.226 537.775 187.935 537.931C187.646 538.084 187.418 538.296 187.249 538.568C187.084 538.836 187.001 539.143 187.001 539.488L187.004 544.32L185.831 544.321ZM193.691 544.475C193.055 544.475 192.493 544.315 192.006 543.994C191.518 543.669 191.137 543.212 190.861 542.622C190.586 542.029 190.448 541.328 190.447 540.52C190.447 539.717 190.584 539.021 190.858 538.431C191.133 537.841 191.516 537.385 192.006 537.063C192.496 536.741 193.063 536.58 193.706 536.58C194.203 536.58 194.596 536.662 194.884 536.828C195.176 536.99 195.398 537.175 195.551 537.384C195.707 537.589 195.828 537.758 195.914 537.891L196.014 537.891L196.011 534.132L197.184 534.131L197.191 544.313L196.058 544.314L196.057 543.141L195.918 543.141C195.832 543.28 195.709 543.456 195.55 543.668C195.391 543.877 195.164 544.064 194.869 544.23C194.575 544.393 194.182 544.474 193.691 544.475ZM193.85 543.421C194.32 543.42 194.718 543.297 195.043 543.052C195.367 542.803 195.614 542.46 195.783 542.022C195.951 541.581 196.036 541.073 196.035 540.496C196.035 539.926 195.952 539.427 195.786 539C195.62 538.569 195.374 538.234 195.049 537.996C194.724 537.754 194.323 537.633 193.846 537.634C193.349 537.634 192.934 537.762 192.603 538.017C192.275 538.27 192.028 538.613 191.863 539.047C191.701 539.478 191.62 539.962 191.62 540.499C191.621 541.042 191.704 541.536 191.87 541.98C192.039 542.421 192.288 542.772 192.616 543.034C192.948 543.292 193.359 543.421 193.85 543.421Z" fill="#0E55A7"/>
<path opacity="0.69" d="M79.5028 565.631L80.9857 564.062L78.8434 563.601L79.2346 562.411L81.2373 563.362L80.9558 561.15L82.2158 561.149L81.9373 563.361L83.9386 562.408L84.3314 563.597L82.1897 564.061L83.6748 565.628L82.6673 566.371L81.588 564.481L80.5113 566.372L79.5028 565.631ZM86.8091 565.626L88.292 564.057L86.1497 563.596L86.5409 562.406L88.5435 563.357L88.262 561.145L89.522 561.144L89.2435 563.356L91.2449 562.403L91.6377 563.592L89.496 564.056L90.9811 565.623L89.9736 566.366L88.8943 564.476L87.8176 566.367L86.8091 565.626ZM94.1153 565.621L95.5982 564.052L93.4559 563.591L93.8471 562.401L95.8498 563.352L95.5683 561.14L96.8283 561.139L96.5498 563.351L98.5511 562.398L98.9439 563.588L96.8022 564.051L98.2873 565.618L97.2798 566.361L96.2005 564.471L95.1238 566.362L94.1153 565.621ZM101.422 565.616L102.904 564.047L100.762 563.586L101.153 562.396L103.156 563.347L102.875 561.135L104.135 561.134L103.856 563.346L105.857 562.393L106.25 563.583L104.108 564.046L105.594 565.613L104.586 566.356L103.507 564.466L102.43 566.357L101.422 565.616ZM108.728 565.611L110.211 564.042L108.068 563.581L108.46 562.391L110.462 563.342L110.181 561.13L111.441 561.129L111.162 563.341L113.164 562.388L113.556 563.578L111.415 564.041L112.9 565.608L111.892 566.351L110.813 564.461L109.736 566.352L108.728 565.611ZM116.034 565.606L117.517 564.037L115.375 563.576L115.766 562.386L117.769 563.337L117.487 561.125L118.747 561.124L118.469 563.336L120.47 562.383L120.863 563.573L118.721 564.036L120.206 565.603L119.199 566.346L118.119 564.456L117.043 566.347L116.034 565.606ZM123.34 565.601L124.823 564.032L122.681 563.571L123.072 562.381L125.075 563.332L124.793 561.12L126.053 561.119L125.775 563.331L127.776 562.378L128.169 563.568L126.027 564.031L127.512 565.598L126.505 566.341L125.426 564.451L124.349 566.342L123.34 565.601ZM130.647 565.596L132.129 564.027L129.987 563.566L130.378 562.376L132.381 563.327L132.099 561.115L133.359 561.114L133.081 563.326L135.082 562.373L135.475 563.563L133.333 564.026L134.819 565.593L133.811 566.336L132.732 564.447L131.655 566.337L130.647 565.596ZM137.953 565.591L139.436 564.022L137.293 563.561L137.685 562.371L139.687 563.322L139.406 561.11L140.666 561.109L140.387 563.321L142.389 562.368L142.781 563.558L140.64 564.021L142.125 565.588L141.117 566.331L140.038 564.442L138.961 566.332L137.953 565.591ZM145.259 565.586L146.742 564.017L144.6 563.556L144.991 562.366L146.994 563.317L146.712 561.105L147.972 561.104L147.694 563.316L149.695 562.363L150.088 563.553L147.946 564.016L149.431 565.583L148.424 566.326L147.344 564.437L146.268 566.327L145.259 565.586Z" fill="#0E55A7" fill-opacity="0.69"/>
<g opacity="0.75">
<path fill-rule="evenodd" clip-rule="evenodd" d="M308.586 557.762C312.604 557.804 315.861 560.671 317.514 563.079C317.514 563.079 316.974 563.931 316.43 564.522C316.166 564.807 315.889 565.085 315.598 565.354C315.39 565.546 315.175 565.733 314.953 565.914C312.964 567.535 310.107 568.745 307.089 568.278C303.736 567.759 301.109 565.485 299.464 563.091C299.464 563.091 299.938 562.218 300.485 561.629C300.73 561.364 300.988 561.107 301.258 560.858C301.464 560.666 301.678 560.48 301.9 560.298C303.657 558.861 305.912 557.754 308.586 557.762ZM308.573 558.94C306.335 558.935 304.474 559.905 303.003 561.109C302.802 561.272 302.609 561.441 302.423 561.614C302.177 561.841 301.942 562.076 301.719 562.317C301.512 562.539 301.317 562.849 301.168 563.08C302.603 564.984 304.699 566.707 307.387 567.123C309.881 567.509 312.208 566.442 313.851 565.102C314.052 564.939 314.246 564.77 314.434 564.597C314.7 564.351 314.953 564.098 315.193 563.837C315.405 563.607 315.627 563.316 315.796 563.08C314.296 561.121 311.746 558.976 308.573 558.94Z" fill="#0E55A7"/>
<path fill-rule="evenodd" clip-rule="evenodd" d="M308.453 560.714C310.135 560.713 311.501 561.77 311.502 563.073C311.503 564.376 310.138 565.435 308.457 565.436C306.776 565.437 305.41 564.38 305.409 563.077C305.408 561.774 306.772 560.715 308.453 560.714ZM308.454 561.895C309.295 561.894 309.978 562.423 309.978 563.074C309.979 563.726 309.297 564.255 308.456 564.256C307.615 564.256 306.933 563.728 306.932 563.076C306.932 562.425 307.614 561.895 308.454 561.895Z" fill="#0E55A7"/>
</g>
<g filter="url(#filter1_d_116_33)">
<rect x="-0.739746" y="263.481" width="393" height="670" rx="34" transform="rotate(-0.0389808 -0.739746 263.481)" fill="white"/>
</g>
</g>
<path d="M-19.5063 21.9622C55.4383 52.7638 160.285 137.986 -19.8853 232.462" stroke="#D1E6FF" stroke-width="2"/>
<path d="M-28.0303 35.4469C36.5949 58.5633 129.506 126.731 -15.8525 214.469" stroke="#D1E6FF" stroke-width="2"/>
<path d="M168.102 -37.7002C188.791 42.3372 285.379 197.011 506.218 175.409" stroke="#D1E6FF" stroke-width="2"/>
<path d="M211.657 -68.6218C225.33 20.403 297.913 178.034 478.861 96.3595" stroke="#D1E6FF" stroke-width="2"/>
<path d="M255.614 -44.5426C271.34 14.9858 337.219 119.605 474.923 61.8523" stroke="#D1E6FF" stroke-width="2"/>
<path d="M308.593 -32.9472C316.528 3.06711 353.614 66.734 438.474 33.2867" stroke="#D1E6FF" stroke-width="2"/>
</g>
<defs>
<filter id="filter0_d_116_33" x="-0.716797" y="263.236" width="401.41" height="678.221" filterUnits="userSpaceOnUse" color-interpolation-filters="sRGB">
<feFlood flood-opacity="0" result="BackgroundImageFix"/>
<feColorMatrix in="SourceAlpha" type="matrix" values="0 0 0 0 0 0 0 0 0 0 0 0 0 0 0 0 0 0 127 0" result="hardAlpha"/>
<feOffset dx="4" dy="4"/>
<feGaussianBlur stdDeviation="2"/>
<feComposite in2="hardAlpha" operator="out"/>
<feColorMatrix type="matrix" values="0 0 0 0 0 0 0 0 0 0 0 0 0 0 0 0 0 0 0.25 0"/>
<feBlend mode="normal" in2="BackgroundImageFix" result="effect1_dropShadow_116_33"/>
<feBlend mode="normal" in="SourceGraphic" in2="effect1_dropShadow_116_33" result="shape"/>
</filter>
<filter id="filter1_d_116_33" x="-4.7168" y="263.236" width="401.41" height="678.221" filterUnits="userSpaceOnUse" color-interpolation-filters="sRGB">
<feFlood flood-opacity="0" result="BackgroundImageFix"/>
<feColorMatrix in="SourceAlpha" type="matrix" values="0 0 0 0 0 0 0 0 0 0 0 0 0 0 0 0 0 0 127 0" result="hardAlpha"/>
<feOffset dy="4"/>
<feGaussianBlur stdDeviation="2"/>
<feComposite in2="hardAlpha" operator="out"/>
<feColorMatrix type="matrix" values="0 0 0 0 0 0 0 0 0 0 0 0 0 0 0 0 0 0 0.25 0"/>
<feBlend mode="normal" in2="BackgroundImageFix" result="effect1_dropShadow_116_33"/>
<feBlend mode="normal" in="SourceGraphic" in2="effect1_dropShadow_116_33" result="shape"/>
</filter>
<linearGradient id="paint0_linear_116_33" x1="198.034" y1="0" x2="198.034" y2="852" gradientUnits="userSpaceOnUse">
<stop stop-color="#4C9FFF"/>
<stop offset="0.484375" stop-color="#8CC1FF"/>
<stop offset="1" stop-color="#4C9FFF"/>
</linearGradient>
<linearGradient id="paint1_linear_116_33" x1="201.307" y1="185.846" x2="201.807" y2="302.346" gradientUnits="userSpaceOnUse">
<stop stop-color="#4C9FFF" stop-opacity="0"/>
<stop offset="1" stop-color="#4C9FFF"/>
</linearGradient>
<linearGradient id="paint2_linear_116_33" x1="198.034" y1="-0.0971375" x2="198.034" y2="333.903" gradientUnits="userSpaceOnUse">
<stop stop-color="white"/>
<stop offset="1" stop-color="white" stop-opacity="0"/>
</linearGradient>
<clipPath id="clip0_116_33">
<rect x="1.53369" width="393" height="852" rx="40" transform="rotate(0.103137 1.53369 0)" fill="white"/>
</clipPath>
</defs>
</svg>
