<svg width="309" height="238" viewBox="0 0 309 238" fill="none" xmlns="http://www.w3.org/2000/svg">
<g clip-path="url(#clip0_148_32)">
<path fill-rule="evenodd" clip-rule="evenodd" d="M7.755 1.444C4.93 2.918 0.088 7.86 0.032 9.327C0.014 9.781 1.126 8.816 2.502 7.18C3.878 5.545 6.915 3.261 9.252 2.104C11.588 0.947999 12.825 0.00399883 12 0.00699883C11.175 0.00999883 9.265 0.656999 7.755 1.444ZM127.889 2.264C134.901 5.836 137.247 10.517 138.032 22.5L138.686 32.5L138.843 23.718C139.012 14.277 137.663 9.411 133.702 5.169C131.276 2.57 126.824 -0.00800117 124.8 0.0139988C124.085 0.0219988 125.475 1.034 127.889 2.264ZM179.411 1.891C176.088 3.917 172 8.587 172 10.357C172 10.954 173.032 9.938 174.293 8.098C175.554 6.257 178.584 3.682 181.027 2.376C183.47 1.069 184.801 0.00199883 183.985 0.00399883C183.168 0.00599883 181.11 0.854999 179.411 1.891ZM299.748 2.104C302.085 3.261 305.122 5.545 306.498 7.18C307.874 8.816 309 9.769 309 9.3C309 7.725 303.132 2.001 300.487 0.994999C295.845 -0.770001 295.373 -0.0610011 299.748 2.104ZM48.25 7.662C47.514 7.959 47 9.99 47 12.603V17.04L68.25 16.77L89.5 16.5L89.818 13.185C90.396 7.161 89.809 6.992 68.628 7.079C58.107 7.122 48.938 7.385 48.25 7.662ZM220.262 8.25C219.721 8.938 219.49 11.188 219.749 13.25L220.219 17H241.109H262V12.607C262 9.524 261.528 8.033 260.418 7.607C259.548 7.273 250.378 7 240.041 7C226.195 7 220.986 7.329 220.262 8.25ZM48.187 12.25L48.5 15.5L68.25 15.771L88 16.042V12.521V9H67.937H47.873L48.187 12.25ZM221 12.521V16.042L240.75 15.771L260.5 15.5L260.813 12.25L261.127 9H241.063H221V12.521ZM170.199 25.022L170 32.544L178.271 40.772C182.82 45.297 186.87 49 187.271 49C187.672 49 188 43.6 188 37V25H240.5H293V115V205H240.5H188V196.578V188.155L179 192.715L170 197.275L170.006 209.388C170.012 223.05 170.944 227.592 174.646 231.991C177.353 235.208 180.824 237.51 181.679 236.655C181.958 236.376 180.848 235.456 179.213 234.61C177.578 233.765 175.19 231.369 173.905 229.287C171.806 225.883 171.531 224.06 171.191 211.25C170.887 199.799 171.076 197 172.156 197C172.895 197 175.975 195.668 179 194.039C182.025 192.411 185.043 191.062 185.706 191.04C186.515 191.013 187.009 193.391 187.206 198.25L187.5 205.5L239 205.777C267.325 205.929 291.512 205.808 292.75 205.508L295 204.962V114.481V24H241.032H187.063L186.782 35.698L186.5 47.397L178.798 39.889L171.095 32.381L170.746 24.94L170.397 17.5L170.199 25.022ZM14 114.481V204.962L16.25 205.508C17.488 205.808 41.675 205.929 70 205.777L121.5 205.5L121.783 194.25C121.938 188.063 122.359 183 122.717 183C123.075 183 125.334 183.952 127.736 185.114C130.139 186.277 132.321 187.013 132.585 186.748C133.047 186.287 122.989 181 121.65 181C121.293 181 121 186.4 121 193V205H68.5H16V115V25H68.5H121V33C121 39.299 121.306 41 122.441 41C123.234 41 124.207 40.474 124.605 39.83C125.091 39.043 124.783 38.869 123.664 39.299C122.198 39.861 122 38.99 122 31.969V24H68H14V114.481ZM129.25 35.745C127.463 36.635 126 37.74 126 38.202C126 38.663 127.8 38.122 130 37C132.2 35.878 134 34.743 134 34.48C134 33.688 132.676 34.04 129.25 35.745ZM138.348 49.765C137.714 50.169 142.086 50.5 148.063 50.5C154.039 50.5 158.158 50.194 157.215 49.82C154.881 48.895 139.781 48.851 138.348 49.765ZM128.103 54.25C122.086 57.474 111.142 65.814 111.049 67.246C111.022 67.656 113.813 65.707 117.25 62.915C120.688 60.122 126.425 56.321 130 54.468C133.575 52.615 135.976 51.076 135.335 51.049C134.694 51.022 131.439 52.462 128.103 54.25ZM160 51.255C161.245 52.51 171.129 57.017 170.538 56.061C170.172 55.47 168.664 54.371 167.187 53.62C164.214 52.108 159.214 50.463 160 51.255ZM177.269 62.469C180.442 65.651 183.801 69.548 184.734 71.127C185.668 72.707 186.687 74 187.001 74C187.314 74 191.042 70.562 195.285 66.36L203 58.719V82.36V106H180C167.35 106 157 105.618 157 105.152C157 104.686 159.588 101.834 162.75 98.814C171.192 90.753 171.255 90.654 169.894 87.667C169.253 86.261 168.087 84.864 167.302 84.562C166.382 84.209 166.655 85.111 168.071 87.1L170.268 90.186L162.634 97.865C158.435 102.089 155 105.872 155 106.272C155 106.672 166.025 107 179.5 107H204V82.5C204 69.025 203.651 58 203.225 58C202.799 58 199.137 61.336 195.087 65.413L187.724 72.825L185.183 69.663C180.786 64.19 175.576 58.883 173.5 57.763C172.4 57.169 174.096 59.287 177.269 62.469ZM125.5 66.496L120.5 67.799L126.5 67.15C134.42 66.292 140.707 66.339 145 67.288L148.5 68.062L145.135 66.531C141.119 64.704 132.433 64.688 125.5 66.496ZM114 69.5C109.587 71.199 108.71 71.279 109.562 69.9C110.053 69.106 109.685 69.098 108.238 69.872C105.572 71.299 104.241 74.524 106.739 73.503C107.707 73.108 111.088 71.891 114.25 70.8C119.778 68.893 121.393 67.915 118.75 68.076C118.063 68.118 115.925 68.759 114 69.5ZM151.474 70.228C153.109 71.478 157.046 74.931 160.224 77.902C163.401 80.873 166 82.943 166 82.502C166 81.114 154.766 70.924 151.562 69.407L148.5 67.957L151.474 70.228ZM121.442 82.29C121.17 83 121.071 90.762 121.224 99.54L121.5 115.5L129.413 115.795C135.068 116.006 137.561 115.72 138.148 114.795C139.092 113.307 139.308 84.965 138.393 82.582C137.596 80.504 122.229 80.24 121.442 82.29ZM122 98.5V114H130H138V98.5V83H130H122V98.5ZM170.492 116.21C170.181 117.47 170.055 125.025 170.213 133L170.5 147.5L179.274 147.789L188.049 148.079L187.774 131.289L187.5 114.5L179.279 114.21C171.431 113.933 171.032 114.024 170.492 116.21ZM171 131.542V147.084L178.75 146.792L186.5 146.5L186.776 131.25L187.052 116H179.026H171V131.542ZM105 147C105 160.75 105.328 172 105.728 172C106.128 172 109.85 168.626 113.999 164.501L121.542 157.003L125.521 162.062C135.371 174.588 148.375 181.201 162.46 180.849L168.5 180.698L161 179.975C144.926 178.425 133.708 171.939 124.5 158.873C123.4 157.312 122.092 156.027 121.593 156.017C121.094 156.008 117.616 159.15 113.864 163C110.112 166.85 106.808 170 106.521 170C106.234 170 106 159.65 106 147V124H129.155H152.31L150.405 126.212C149.357 127.428 146.093 130.759 143.151 133.613C137.378 139.216 137.062 140.992 141.197 144.618C143.519 146.653 142.887 144.885 140.159 141.712C138.736 140.058 139.193 139.35 146.311 132.19C150.54 127.936 154 123.903 154 123.228C154 122.291 148.198 122 129.5 122H105V147ZM144.128 148.697C149.685 155.567 160.305 162.908 165.636 163.565L169.5 164.041L165.5 162.688C158.836 160.436 155.538 158.344 149.503 152.545C143.811 147.077 141.449 145.385 144.128 148.697ZM198.792 157.55C195.535 159.318 185.562 161.977 178 163.093C173.139 163.811 173.399 163.854 180.235 163.466C185.347 163.177 190.068 162.176 194.154 160.516C197.554 159.134 200.507 158.173 200.714 158.381C200.922 158.589 198.259 161.335 194.796 164.483C191.333 167.632 189.27 169.816 190.211 169.336C192.724 168.056 203 158.129 203 156.982C203 155.665 202.022 155.797 198.792 157.55ZM184.752 171.841C183.24 172.754 182.003 173.863 182.002 174.307C182.001 174.75 183.35 174.316 185 173.341C186.65 172.366 188 171.216 188 170.784C188 169.84 188.149 169.791 184.752 171.841ZM174.07 177.302C171.083 178.445 169.204 179.568 169.893 179.798C171.374 180.291 179.726 177.253 180.549 175.921C181.316 174.68 180.426 174.869 174.07 177.302ZM135.827 188.255L138.154 189.374L137.813 207.437C137.494 224.36 137.324 225.739 135.116 229.287C133.82 231.369 131.463 233.743 129.88 234.562C126.975 236.064 126.224 237 127.923 237C129.91 237 135.378 231.377 137.12 227.541C138.67 224.129 138.959 220.821 138.978 206.285C138.998 190.277 138.864 188.998 137.066 188.035C136.002 187.466 134.764 187.03 134.316 187.068C133.867 187.105 134.547 187.639 135.827 188.255ZM64.629 213.791C64.36 214.226 65.658 214.405 67.513 214.188C70.12 213.884 71.466 214.375 73.443 216.352C74.849 217.758 76 218.512 76 218.027C76 215.036 66.132 211.36 64.629 213.791ZM235.635 215.073C234.186 216.212 233 217.612 233 218.183C233 218.754 233.798 218.236 234.774 217.031C235.75 215.826 238.112 214.472 240.024 214.022C243.004 213.321 243.127 213.19 240.885 213.102C239.447 213.046 237.084 213.933 235.635 215.073ZM61.043 216.449C58.895 219.037 59.525 224.98 62.235 227.689C65.201 230.656 70.392 231.072 72.81 228.537C74.41 226.861 74.384 226.826 72.316 227.883C66.688 230.76 61 227.652 61 221.7C61 219.885 61.532 217.868 62.183 217.217C62.834 216.566 63.123 215.79 62.826 215.493C62.528 215.195 61.726 215.625 61.043 216.449ZM246 215.727C246 216.362 246.45 217.16 247 217.5C247.55 217.84 248 219.666 248 221.559C248 227.655 242.38 230.795 236.684 227.883C234.616 226.826 234.59 226.861 236.19 228.537C238.608 231.072 243.799 230.656 246.765 227.689C249.652 224.802 250.097 218.668 247.6 216.171C246.647 215.218 246 215.038 246 215.727ZM0 228.7C0 230.275 5.868 235.999 8.513 237.005C13.155 238.77 13.627 238.061 9.252 235.896C6.915 234.739 3.878 232.455 2.502 230.82C1.126 229.184 0 228.231 0 228.7ZM306.268 231.018C305.04 232.534 302.115 234.724 299.768 235.886C297.42 237.048 296.107 237.999 296.849 237.999C299.384 238.001 304.497 234.882 306.867 231.89C308.169 230.246 309.069 228.757 308.867 228.582C308.665 228.407 307.495 229.503 306.268 231.018Z" fill="#70BBE6"/>
<path fill-rule="evenodd" clip-rule="evenodd" d="M9.252 2.104C6.915 3.261 3.878 5.545 2.502 7.18L0 10.153V119V227.847L2.523 230.845C3.911 232.495 6.978 234.779 9.339 235.922C13.525 237.949 14.99 238 68.456 238H123.281L127.786 235.75C130.492 234.398 133.33 231.904 134.895 229.5C137.421 225.621 137.51 224.948 137.828 207.332L138.157 189.165L132.048 186.937C128.688 185.712 125.701 184.325 125.41 183.855C125.12 183.385 124.248 183 123.474 183C122.363 183 122.006 185.376 121.783 194.25L121.5 205.5L70 205.777C41.675 205.929 17.488 205.808 16.25 205.508L14 204.962V114.481V24H68H122V31.969C122 39.144 122.174 39.871 123.75 39.275C124.712 38.91 126.084 38.035 126.797 37.33C127.51 36.626 130.367 35.25 133.145 34.274L138.196 32.5L137.805 22.5C137.468 13.864 137.065 11.954 134.853 8.5C133.292 6.064 130.528 3.62 127.786 2.25L123.281 0L68.39 0.001C14.619 0.002 13.413 0.0440001 9.252 2.104ZM181.106 2.264C178.642 3.518 175.581 6.205 174.136 8.382C171.903 11.747 171.507 13.579 171.163 22.161L170.765 32.059L178.633 39.728L186.5 47.397L186.782 35.698L187.063 24H241.032H295V114.481V204.962L292.75 205.508C291.512 205.808 267.325 205.929 239 205.777L187.5 205.5L187.206 198.25C187.009 193.391 186.515 191.013 185.706 191.04C185.043 191.062 182.025 192.411 179 194.039C175.975 195.668 172.895 197 172.156 197C171.078 197 170.882 199.811 171.166 211.25C171.497 224.588 171.685 225.756 174.115 229.5C175.679 231.911 178.499 234.394 181.214 235.75L185.719 238H240.544C294.01 238 295.475 237.949 299.661 235.922C302.022 234.779 305.089 232.495 306.477 230.845L309 227.847V119V10.153L306.477 7.155C305.089 5.505 302.022 3.221 299.661 2.078C295.473 0.0510001 294.026 0 240.434 0.014C185.556 0.028 185.496 0.03 181.106 2.264ZM48.25 7.662C47.514 7.959 47 9.99 47 12.603V17.04L68.25 16.77L89.5 16.5L89.818 13.185C90.396 7.161 89.809 6.992 68.628 7.079C58.107 7.122 48.938 7.385 48.25 7.662ZM220.262 8.25C219.721 8.938 219.49 11.188 219.749 13.25L220.219 17H241.109H262V12.607C262 9.524 261.528 8.033 260.418 7.607C259.548 7.273 250.378 7 240.041 7C226.195 7 220.986 7.329 220.262 8.25ZM137 51.302C127.994 54.761 111.975 65.61 109.116 70.186C108.143 71.744 108.326 71.762 111.541 70.418C117.383 67.977 131.199 65.014 136.772 65.007C146.419 64.994 156.76 71.403 167.174 83.848C172.166 89.814 172.163 89.825 162.75 98.814C159.588 101.834 157 104.686 157 105.152C157 105.618 167.35 106 180 106H203V82.36V58.719L195.285 66.36C191.042 70.562 187.314 74 187.001 74C186.687 74 185.686 72.738 184.775 71.196C181.452 65.571 172.78 57.914 165.665 54.323C159.336 51.13 157.45 50.664 149.5 50.333C143.527 50.084 139.323 50.41 137 51.302ZM122 98.5V114H130H138V98.5V83H130H122V98.5ZM171 131.542V147.084L178.75 146.792L186.5 146.5L186.776 131.25L187.052 116H179.026H171V131.542ZM106 147C106 159.65 106.234 170 106.521 170C106.808 170 110.112 166.85 113.864 163C117.616 159.15 121.094 156.008 121.593 156.017C122.092 156.027 123.4 157.312 124.5 158.873C133.691 171.915 147.991 179.973 161.979 179.992C166.845 179.999 180.395 175.997 182 174.079C182.275 173.75 184.3 172.311 186.5 170.881C191.06 167.918 201.266 158.933 200.707 158.374C200.503 158.17 197.598 159.116 194.251 160.476C187.204 163.34 172.72 165.061 166.087 163.823C160.818 162.84 154.07 158.663 148.258 152.788C143.012 147.485 138 141.076 138 139.67C138 139.09 140.363 136.322 143.25 133.519C146.137 130.716 149.357 127.428 150.405 126.212L152.31 124H129.155H106V147ZM62.65 215.291C56.77 219.996 60.294 230 67.908 230.216C75.502 230.432 79.406 220.327 73.644 215.37C70.175 212.386 66.314 212.358 62.65 215.291ZM235.356 215.37C229.594 220.327 233.498 230.432 241.092 230.216C249.043 229.99 252.392 219.039 245.75 214.989C241.474 212.382 238.712 212.483 235.356 215.37Z" fill="#183883"/>
</g>
<defs>
<clipPath id="clip0_148_32">
<rect width="309" height="238" fill="white"/>
</clipPath>
</defs>
</svg>
