<svg xmlns="http://www.w3.org/2000/svg" width="309" height="238" viewBox="0 0 309 238" version="1.1"><path d="M 7.755 1.444 C 4.930 2.918, 0.088 7.860, 0.032 9.327 C 0.014 9.781, 1.126 8.816, 2.502 7.180 C 3.878 5.545, 6.915 3.261, 9.252 2.104 C 11.588 0.948, 12.825 0.004, 12 0.007 C 11.175 0.010, 9.265 0.657, 7.755 1.444 M 127.889 2.264 C 134.901 5.836, 137.247 10.517, 138.032 22.500 L 138.686 32.500 138.843 23.718 C 139.012 14.277, 137.663 9.411, 133.702 5.169 C 131.276 2.570, 126.824 -0.008, 124.800 0.014 C 124.085 0.022, 125.475 1.034, 127.889 2.264 M 179.411 1.891 C 176.088 3.917, 172 8.587, 172 10.357 C 172 10.954, 173.032 9.938, 174.293 8.098 C 175.554 6.257, 178.584 3.682, 181.027 2.376 C 183.470 1.069, 184.801 0.002, 183.985 0.004 C 183.168 0.006, 181.110 0.855, 179.411 1.891 M 299.748 2.104 C 302.085 3.261, 305.122 5.545, 306.498 7.180 C 307.874 8.816, 309 9.769, 309 9.300 C 309 7.725, 303.132 2.001, 300.487 0.995 C 295.845 -0.770, 295.373 -0.061, 299.748 2.104 M 48.250 7.662 C 47.514 7.959, 47 9.990, 47 12.603 L 47 17.040 68.250 16.770 L 89.500 16.500 89.818 13.185 C 90.396 7.161, 89.809 6.992, 68.628 7.079 C 58.107 7.122, 48.938 7.385, 48.250 7.662 M 220.262 8.250 C 219.721 8.938, 219.490 11.188, 219.749 13.250 L 220.219 17 241.109 17 L 262 17 262 12.607 C 262 9.524, 261.528 8.033, 260.418 7.607 C 259.548 7.273, 250.378 7, 240.041 7 C 226.195 7, 220.986 7.329, 220.262 8.250 M 48.187 12.250 L 48.500 15.500 68.250 15.771 L 88 16.042 88 12.521 L 88 9 67.937 9 L 47.873 9 48.187 12.250 M 221 12.521 L 221 16.042 240.750 15.771 L 260.500 15.500 260.813 12.250 L 261.127 9 241.063 9 L 221 9 221 12.521 M 170.199 25.022 L 170 32.544 178.271 40.772 C 182.820 45.297, 186.870 49, 187.271 49 C 187.672 49, 188 43.600, 188 37 L 188 25 240.500 25 L 293 25 293 115 L 293 205 240.500 205 L 188 205 188 196.578 L 188 188.155 179 192.715 L 170 197.275 170.006 209.388 C 170.012 223.050, 170.944 227.592, 174.646 231.991 C 177.353 235.208, 180.824 237.510, 181.679 236.655 C 181.958 236.376, 180.848 235.456, 179.213 234.610 C 177.578 233.765, 175.190 231.369, 173.905 229.287 C 171.806 225.883, 171.531 224.060, 171.191 211.250 C 170.887 199.799, 171.076 197, 172.156 197 C 172.895 197, 175.975 195.668, 179 194.039 C 182.025 192.411, 185.043 191.062, 185.706 191.040 C 186.515 191.013, 187.009 193.391, 187.206 198.250 L 187.500 205.500 239 205.777 C 267.325 205.929, 291.512 205.808, 292.750 205.508 L 295 204.962 295 114.481 L 295 24 241.032 24 L 187.063 24 186.782 35.698 L 186.500 47.397 178.798 39.889 L 171.095 32.381 170.746 24.940 L 170.397 17.500 170.199 25.022 M 14 114.481 L 14 204.962 16.250 205.508 C 17.488 205.808, 41.675 205.929, 70 205.777 L 121.500 205.500 121.783 194.250 C 121.938 188.063, 122.359 183, 122.717 183 C 123.075 183, 125.334 183.952, 127.736 185.114 C 130.139 186.277, 132.321 187.013, 132.585 186.748 C 133.047 186.287, 122.989 181, 121.650 181 C 121.293 181, 121 186.400, 121 193 L 121 205 68.500 205 L 16 205 16 115 L 16 25 68.500 25 L 121 25 121 33 C 121 39.299, 121.306 41, 122.441 41 C 123.234 41, 124.207 40.474, 124.605 39.830 C 125.091 39.043, 124.783 38.869, 123.664 39.299 C 122.198 39.861, 122 38.990, 122 31.969 L 122 24 68 24 L 14 24 14 114.481 M 129.250 35.745 C 127.463 36.635, 126 37.740, 126 38.202 C 126 38.663, 127.800 38.122, 130 37 C 132.200 35.878, 134 34.743, 134 34.480 C 134 33.688, 132.676 34.040, 129.250 35.745 M 138.348 49.765 C 137.714 50.169, 142.086 50.500, 148.063 50.500 C 154.039 50.500, 158.158 50.194, 157.215 49.820 C 154.881 48.895, 139.781 48.851, 138.348 49.765 M 128.103 54.250 C 122.086 57.474, 111.142 65.814, 111.049 67.246 C 111.022 67.656, 113.813 65.707, 117.250 62.915 C 120.688 60.122, 126.425 56.321, 130 54.468 C 133.575 52.615, 135.976 51.076, 135.335 51.049 C 134.694 51.022, 131.439 52.462, 128.103 54.250 M 160 51.255 C 161.245 52.510, 171.129 57.017, 170.538 56.061 C 170.172 55.470, 168.664 54.371, 167.187 53.620 C 164.214 52.108, 159.214 50.463, 160 51.255 M 177.269 62.469 C 180.442 65.651, 183.801 69.548, 184.734 71.127 C 185.668 72.707, 186.687 74, 187.001 74 C 187.314 74, 191.042 70.562, 195.285 66.360 L 203 58.719 203 82.360 L 203 106 180 106 C 167.350 106, 157 105.618, 157 105.152 C 157 104.686, 159.588 101.834, 162.750 98.814 C 171.192 90.753, 171.255 90.654, 169.894 87.667 C 169.253 86.261, 168.087 84.864, 167.302 84.562 C 166.382 84.209, 166.655 85.111, 168.071 87.100 L 170.268 90.186 162.634 97.865 C 158.435 102.089, 155 105.872, 155 106.272 C 155 106.672, 166.025 107, 179.500 107 L 204 107 204 82.500 C 204 69.025, 203.651 58, 203.225 58 C 202.799 58, 199.137 61.336, 195.087 65.413 L 187.724 72.825 185.183 69.663 C 180.786 64.190, 175.576 58.883, 173.500 57.763 C 172.400 57.169, 174.096 59.287, 177.269 62.469 M 125.500 66.496 L 120.500 67.799 126.500 67.150 C 134.420 66.292, 140.707 66.339, 145 67.288 L 148.500 68.062 145.135 66.531 C 141.119 64.704, 132.433 64.688, 125.500 66.496 M 114 69.500 C 109.587 71.199, 108.710 71.279, 109.562 69.900 C 110.053 69.106, 109.685 69.098, 108.238 69.872 C 105.572 71.299, 104.241 74.524, 106.739 73.503 C 107.707 73.108, 111.088 71.891, 114.250 70.800 C 119.778 68.893, 121.393 67.915, 118.750 68.076 C 118.063 68.118, 115.925 68.759, 114 69.500 M 151.474 70.228 C 153.109 71.478, 157.046 74.931, 160.224 77.902 C 163.401 80.873, 166 82.943, 166 82.502 C 166 81.114, 154.766 70.924, 151.562 69.407 L 148.500 67.957 151.474 70.228 M 121.442 82.290 C 121.170 83, 121.071 90.762, 121.224 99.540 L 121.500 115.500 129.413 115.795 C 135.068 116.006, 137.561 115.720, 138.148 114.795 C 139.092 113.307, 139.308 84.965, 138.393 82.582 C 137.596 80.504, 122.229 80.240, 121.442 82.290 M 122 98.500 L 122 114 130 114 L 138 114 138 98.500 L 138 83 130 83 L 122 83 122 98.500 M 170.492 116.210 C 170.181 117.470, 170.055 125.025, 170.213 133 L 170.500 147.500 179.274 147.789 L 188.049 148.079 187.774 131.289 L 187.500 114.500 179.279 114.210 C 171.431 113.933, 171.032 114.024, 170.492 116.210 M 171 131.542 L 171 147.084 178.750 146.792 L 186.500 146.500 186.776 131.250 L 187.052 116 179.026 116 L 171 116 171 131.542 M 105 147 C 105 160.750, 105.328 172, 105.728 172 C 106.128 172, 109.850 168.626, 113.999 164.501 L 121.542 157.003 125.521 162.062 C 135.371 174.588, 148.375 181.201, 162.460 180.849 L 168.500 180.698 161 179.975 C 144.926 178.425, 133.708 171.939, 124.500 158.873 C 123.400 157.312, 122.092 156.027, 121.593 156.017 C 121.094 156.008, 117.616 159.150, 113.864 163 C 110.112 166.850, 106.808 170, 106.521 170 C 106.234 170, 106 159.650, 106 147 L 106 124 129.155 124 L 152.310 124 150.405 126.212 C 149.357 127.428, 146.093 130.759, 143.151 133.613 C 137.378 139.216, 137.062 140.992, 141.197 144.618 C 143.519 146.653, 142.887 144.885, 140.159 141.712 C 138.736 140.058, 139.193 139.350, 146.311 132.190 C 150.540 127.936, 154 123.903, 154 123.228 C 154 122.291, 148.198 122, 129.500 122 L 105 122 105 147 M 144.128 148.697 C 149.685 155.567, 160.305 162.908, 165.636 163.565 L 169.500 164.041 165.500 162.688 C 158.836 160.436, 155.538 158.344, 149.503 152.545 C 143.811 147.077, 141.449 145.385, 144.128 148.697 M 198.792 157.550 C 195.535 159.318, 185.562 161.977, 178 163.093 C 173.139 163.811, 173.399 163.854, 180.235 163.466 C 185.347 163.177, 190.068 162.176, 194.154 160.516 C 197.554 159.134, 200.507 158.173, 200.714 158.381 C 200.922 158.589, 198.259 161.335, 194.796 164.483 C 191.333 167.632, 189.270 169.816, 190.211 169.336 C 192.724 168.056, 203 158.129, 203 156.982 C 203 155.665, 202.022 155.797, 198.792 157.550 M 184.752 171.841 C 183.240 172.754, 182.003 173.863, 182.002 174.307 C 182.001 174.750, 183.350 174.316, 185 173.341 C 186.650 172.366, 188 171.216, 188 170.784 C 188 169.840, 188.149 169.791, 184.752 171.841 M 174.070 177.302 C 171.083 178.445, 169.204 179.568, 169.893 179.798 C 171.374 180.291, 179.726 177.253, 180.549 175.921 C 181.316 174.680, 180.426 174.869, 174.070 177.302 M 135.827 188.255 L 138.154 189.374 137.813 207.437 C 137.494 224.360, 137.324 225.739, 135.116 229.287 C 133.820 231.369, 131.463 233.743, 129.880 234.562 C 126.975 236.064, 126.224 237, 127.923 237 C 129.910 237, 135.378 231.377, 137.120 227.541 C 138.670 224.129, 138.959 220.821, 138.978 206.285 C 138.998 190.277, 138.864 188.998, 137.066 188.035 C 136.002 187.466, 134.764 187.030, 134.316 187.068 C 133.867 187.105, 134.547 187.639, 135.827 188.255 M 64.629 213.791 C 64.360 214.226, 65.658 214.405, 67.513 214.188 C 70.120 213.884, 71.466 214.375, 73.443 216.352 C 74.849 217.758, 76 218.512, 76 218.027 C 76 215.036, 66.132 211.360, 64.629 213.791 M 235.635 215.073 C 234.186 216.212, 233 217.612, 233 218.183 C 233 218.754, 233.798 218.236, 234.774 217.031 C 235.750 215.826, 238.112 214.472, 240.024 214.022 C 243.004 213.321, 243.127 213.190, 240.885 213.102 C 239.447 213.046, 237.084 213.933, 235.635 215.073 M 61.043 216.449 C 58.895 219.037, 59.525 224.980, 62.235 227.689 C 65.201 230.656, 70.392 231.072, 72.810 228.537 C 74.410 226.861, 74.384 226.826, 72.316 227.883 C 66.688 230.760, 61 227.652, 61 221.700 C 61 219.885, 61.532 217.868, 62.183 217.217 C 62.834 216.566, 63.123 215.790, 62.826 215.493 C 62.528 215.195, 61.726 215.625, 61.043 216.449 M 246 215.727 C 246 216.362, 246.450 217.160, 247 217.500 C 247.550 217.840, 248 219.666, 248 221.559 C 248 227.655, 242.380 230.795, 236.684 227.883 C 234.616 226.826, 234.590 226.861, 236.190 228.537 C 238.608 231.072, 243.799 230.656, 246.765 227.689 C 249.652 224.802, 250.097 218.668, 247.600 216.171 C 246.647 215.218, 246 215.038, 246 215.727 M -0 228.700 C -0 230.275, 5.868 235.999, 8.513 237.005 C 13.155 238.770, 13.627 238.061, 9.252 235.896 C 6.915 234.739, 3.878 232.455, 2.502 230.820 C 1.126 229.184, -0 228.231, -0 228.700 M 306.268 231.018 C 305.040 232.534, 302.115 234.724, 299.768 235.886 C 297.420 237.048, 296.107 237.999, 296.849 237.999 C 299.384 238.001, 304.497 234.882, 306.867 231.890 C 308.169 230.246, 309.069 228.757, 308.867 228.582 C 308.665 228.407, 307.495 229.503, 306.268 231.018" stroke="none" fill="#70bbe6" fill-rule="evenodd"/><path d="M 9.252 2.104 C 6.915 3.261, 3.878 5.545, 2.502 7.180 L -0 10.153 0 119 L 0 227.847 2.523 230.845 C 3.911 232.495, 6.978 234.779, 9.339 235.922 C 13.525 237.949, 14.990 238, 68.456 238 L 123.281 238 127.786 235.750 C 130.492 234.398, 133.330 231.904, 134.895 229.500 C 137.421 225.621, 137.510 224.948, 137.828 207.332 L 138.157 189.165 132.048 186.937 C 128.688 185.712, 125.701 184.325, 125.410 183.855 C 125.120 183.385, 124.248 183, 123.474 183 C 122.363 183, 122.006 185.376, 121.783 194.250 L 121.500 205.500 70 205.777 C 41.675 205.929, 17.488 205.808, 16.250 205.508 L 14 204.962 14 114.481 L 14 24 68 24 L 122 24 122 31.969 C 122 39.144, 122.174 39.871, 123.750 39.275 C 124.712 38.910, 126.084 38.035, 126.797 37.330 C 127.510 36.626, 130.367 35.250, 133.145 34.274 L 138.196 32.500 137.805 22.500 C 137.468 13.864, 137.065 11.954, 134.853 8.500 C 133.292 6.064, 130.528 3.620, 127.786 2.250 L 123.281 -0 68.390 0.001 C 14.619 0.002, 13.413 0.044, 9.252 2.104 M 181.106 2.264 C 178.642 3.518, 175.581 6.205, 174.136 8.382 C 171.903 11.747, 171.507 13.579, 171.163 22.161 L 170.765 32.059 178.633 39.728 L 186.500 47.397 186.782 35.698 L 187.063 24 241.032 24 L 295 24 295 114.481 L 295 204.962 292.750 205.508 C 291.512 205.808, 267.325 205.929, 239 205.777 L 187.500 205.500 187.206 198.250 C 187.009 193.391, 186.515 191.013, 185.706 191.040 C 185.043 191.062, 182.025 192.411, 179 194.039 C 175.975 195.668, 172.895 197, 172.156 197 C 171.078 197, 170.882 199.811, 171.166 211.250 C 171.497 224.588, 171.685 225.756, 174.115 229.500 C 175.679 231.911, 178.499 234.394, 181.214 235.750 L 185.719 238 240.544 238 C 294.010 238, 295.475 237.949, 299.661 235.922 C 302.022 234.779, 305.089 232.495, 306.477 230.845 L 309 227.847 309 119 L 309 10.153 306.477 7.155 C 305.089 5.505, 302.022 3.221, 299.661 2.078 C 295.473 0.051, 294.026 0, 240.434 0.014 C 185.556 0.028, 185.496 0.030, 181.106 2.264 M 48.250 7.662 C 47.514 7.959, 47 9.990, 47 12.603 L 47 17.040 68.250 16.770 L 89.500 16.500 89.818 13.185 C 90.396 7.161, 89.809 6.992, 68.628 7.079 C 58.107 7.122, 48.938 7.385, 48.250 7.662 M 220.262 8.250 C 219.721 8.938, 219.490 11.188, 219.749 13.250 L 220.219 17 241.109 17 L 262 17 262 12.607 C 262 9.524, 261.528 8.033, 260.418 7.607 C 259.548 7.273, 250.378 7, 240.041 7 C 226.195 7, 220.986 7.329, 220.262 8.250 M 137 51.302 C 127.994 54.761, 111.975 65.610, 109.116 70.186 C 108.143 71.744, 108.326 71.762, 111.541 70.418 C 117.383 67.977, 131.199 65.014, 136.772 65.007 C 146.419 64.994, 156.760 71.403, 167.174 83.848 C 172.166 89.814, 172.163 89.825, 162.750 98.814 C 159.588 101.834, 157 104.686, 157 105.152 C 157 105.618, 167.350 106, 180 106 L 203 106 203 82.360 L 203 58.719 195.285 66.360 C 191.042 70.562, 187.314 74, 187.001 74 C 186.687 74, 185.686 72.738, 184.775 71.196 C 181.452 65.571, 172.780 57.914, 165.665 54.323 C 159.336 51.130, 157.450 50.664, 149.500 50.333 C 143.527 50.084, 139.323 50.410, 137 51.302 M 122 98.500 L 122 114 130 114 L 138 114 138 98.500 L 138 83 130 83 L 122 83 122 98.500 M 171 131.542 L 171 147.084 178.750 146.792 L 186.500 146.500 186.776 131.250 L 187.052 116 179.026 116 L 171 116 171 131.542 M 106 147 C 106 159.650, 106.234 170, 106.521 170 C 106.808 170, 110.112 166.850, 113.864 163 C 117.616 159.150, 121.094 156.008, 121.593 156.017 C 122.092 156.027, 123.400 157.312, 124.500 158.873 C 133.691 171.915, 147.991 179.973, 161.979 179.992 C 166.845 179.999, 180.395 175.997, 182 174.079 C 182.275 173.750, 184.300 172.311, 186.500 170.881 C 191.060 167.918, 201.266 158.933, 200.707 158.374 C 200.503 158.170, 197.598 159.116, 194.251 160.476 C 187.204 163.340, 172.720 165.061, 166.087 163.823 C 160.818 162.840, 154.070 158.663, 148.258 152.788 C 143.012 147.485, 138 141.076, 138 139.670 C 138 139.090, 140.363 136.322, 143.250 133.519 C 146.137 130.716, 149.357 127.428, 150.405 126.212 L 152.310 124 129.155 124 L 106 124 106 147 M 62.650 215.291 C 56.770 219.996, 60.294 230, 67.908 230.216 C 75.502 230.432, 79.406 220.327, 73.644 215.370 C 70.175 212.386, 66.314 212.358, 62.650 215.291 M 235.356 215.370 C 229.594 220.327, 233.498 230.432, 241.092 230.216 C 249.043 229.990, 252.392 219.039, 245.750 214.989 C 241.474 212.382, 238.712 212.483, 235.356 215.370" stroke="none" fill="#0493d4" fill-rule="evenodd"/></svg>